<?xml version="1.0" encoding="utf-8"?>
<!-- Generator: Adobe Illustrator 21.0.0, SVG Export Plug-In . SVG Version: 6.00 Build 0)  -->
<svg version="1.1" id="Layer_1" xmlns="http://www.w3.org/2000/svg" xmlns:xlink="http://www.w3.org/1999/xlink" x="0px" y="0px"
	 viewBox="0 0 340 150" style="enable-background:new 0 0 340 150;" xml:space="preserve">
<style type="text/css">
	.st0{fill:none;}
	.st1{enable-background:new    ;}
	.st2{fill:#FFFFFF;}
	.st3{fill:none;stroke:#FFFFFF;stroke-width:2;stroke-miterlimit:10;}
</style>
<rect x="6.5" y="35.3" class="st0" width="330" height="87.3"/>
<g class="st1">
	<path class="st2" d="M78,66.7h15v3.3H72.8v-2.4c2-3.7,5-7.1,9.1-10.2c4.8-3.4,7-6.2,6.7-8.2c-0.1-3.2-1.9-4.9-5.4-5
		c-3.1,0-5.1,1.8-6,5.5l-4-1.3c1.4-5.2,5-7.8,10.6-7.8c5.8,0.2,8.8,2.9,9.2,8.1c0.5,3.4-1.8,6.8-7,10.1C82.5,61.2,79.8,63.8,78,66.7
		z"/>
	<path class="st2" d="M107.4,40.6c6.8,0.1,10.3,5.1,10.4,15c0,10-3.5,15-10.4,14.9c-6.9-0.1-10.4-5.1-10.5-14.9
		C97.1,45.9,100.6,40.8,107.4,40.6z M107.4,67.4c3.9,0.1,5.8-3.8,5.8-11.6c0.1-8-1.8-12-5.8-11.8c-3.9-0.1-5.8,3.8-5.8,11.8
		C101.6,63.6,103.5,67.5,107.4,67.4z"/>
	<path class="st2" d="M129.6,70.1V47.4c-2.2,2.1-5.2,3.9-8.9,5.5c0-1.3,0-2.6,0-3.8c4.9-2.3,8.2-5.1,9.9-8.4h3.3v29.4H129.6z"/>
	<path class="st2" d="M150,70.1h-4.7c1-8.1,4.5-16.6,10.5-25.3h-15.3v-3.5h20.3v3C154.3,52.9,150.8,61.5,150,70.1z"/>
	<path class="st2" d="M164.3,64.8V62h14.2c0.1-0.2,0.1-0.5,0.1-1c0.1-0.5,0.1-0.8,0.1-1h3.8c0,0.3,0,0.7-0.1,1.1c0,0.4,0,0.7,0,0.9
		h14.3v2.8h-13.2c1.3,2.3,6,3.6,14.1,4.1c-0.4,0.7-0.8,1.6-1.3,2.7c-0.1,0.3-0.2,0.5-0.3,0.6c-8.5-0.9-13.6-2.9-15.3-5.8
		c-1.6,2.8-6.8,4.9-15.6,6.2c-0.4-0.8-0.9-1.8-1.7-3.1c8.6-1,13.3-2.6,14.1-4.7H164.3z M166.3,60.3V41.7h10.5c0.4-1.1,0.7-2.3,1-3.4
		l4.4,0.4l-1.1,3h13.8v18.6h-3.7V44.7H170v15.6H166.3z M171.6,53.6v-2.7h7.4v-6h3.3v6h7.4v2.7h-7.4v2.3l1.3-1.7
		c0.8,0.4,1.9,0.9,3.4,1.7c1.4,0.8,2.5,1.3,3.3,1.7l-1.6,2.4c-2.5-1.4-4.6-2.6-6.4-3.5v2.7H179v-3.3c-1.5,1.5-3.7,3-6.5,4.4
		c-0.2-0.4-0.5-0.9-1-1.7c-0.3-0.4-0.5-0.7-0.6-0.9c2.7-1,5.1-2.4,7.1-4.1H171.6z M176.1,50.6c-1.5-1.3-2.8-2.4-4-3.1l1.7-1.8
		c1.3,0.9,2.7,1.8,4.1,3L176.1,50.6z M184.9,50.6l-1.6-2.1c0.9-0.5,2.2-1.4,4.1-2.8l1.7,1.8C187.9,48.5,186.5,49.5,184.9,50.6z"/>
	<path class="st2" d="M199.8,51.5v-3.4h3.1v-9.5h3.5v9.5h2.7v3.4h-2.7v21h-3.5v-21H199.8z M209.2,44.5v-2.8h10.4v-3.1h3.4v3.1h4.3
		c-0.4-0.8-0.9-1.6-1.7-2.4l3.3-0.7c0.5,0.6,1,1.3,1.7,2.3c0.3,0.5,0.5,0.8,0.6,0.9h2.7v2.8H223v2.1h9.1v13.5h-2.6V62h4.7v2.8h-4.7
		v3c0.1,2.8-1.4,4.2-4.5,4.1c-1,0.1-2.6,0.1-4.7,0.1c-0.1-0.4-0.3-1.1-0.6-2.3c-0.1-0.5-0.2-0.9-0.3-1.1c1.5,0.1,3,0.1,4.4,0.1
		c1.5,0.1,2.2-0.5,2.1-1.8v-2.1h-11.8c1.6,0.9,3.2,2.1,4.7,3.4l-2.4,2.3c-0.8-0.7-2.1-1.7-4-3.1c-0.4-0.2-0.7-0.4-0.9-0.6l1.8-2h-5
		V62h17.5v-2h2.7v-1.6H223v1.8h-3.4v-1.8h-5.7v2.1h-3.3V46.7h8.9v-2.1H209.2z M213.9,49.4v2.1h5.7v-2.1H213.9z M213.9,53.9V56h5.7
		v-2.1H213.9z M228.6,49.4H223v2.1h5.7V49.4z M223,53.9V56h5.7v-2.1H223z"/>
	<path class="st2" d="M268.2,53.9c-1-0.6-2.5-1.4-4.4-2.4c-0.6-0.4-1-0.7-1.3-0.9v3.3H244v-3c-1.8,1.1-3.7,2.3-5.8,3.4
		c-0.3-0.7-0.9-1.7-1.8-3c-0.1-0.2-0.2-0.3-0.3-0.4c7.2-3.5,12.5-7.7,16-12.6l4.5,0.4l-0.9,1.1c3.4,4.4,8.3,7.9,14.8,10.5
		C269.7,51.5,269,52.7,268.2,53.9z M237.1,61.4v-3.5h32.2v3.5h-17.3c-2.2,2.3-4.3,4.4-6.2,6.5c0.7,0,1.7,0,3-0.1
		c4.7-0.1,8.4-0.2,11.1-0.4l-3.1-3.3l2.7-2.1c0.9,0.9,2.4,2.4,4.4,4.4c1.8,1.6,3.1,2.8,4,3.7l-3,2.6c-0.7-0.9-1.4-1.6-2.1-2.3
		c-4.4,0-9.9,0.2-16.7,0.7c-1.7,0.1-3.2,0.3-4.4,0.6l-1.8-3.4c1.2-0.6,2.3-1.3,3.1-2.1c1.1-1,2.6-2.6,4.4-4.7H237.1z M253.6,42.7
		c-2.7,3-5.7,5.6-8.9,7.7h17.5C258.6,48.2,255.8,45.6,253.6,42.7z"/>
</g>
<g class="st1">
	<path class="st2" d="M86.4,108.7L80,89.1h2.7l3.1,9.7c0.8,2.6,1.6,5,2.1,7.3h0.1c0.6-2.3,1.4-4.7,2.2-7.3l3.3-9.7h2.7l-7,19.6H86.4
		z"/>
	<path class="st2" d="M100.6,90.7c0,0.9-0.6,1.6-1.6,1.6c-0.9,0-1.5-0.7-1.5-1.6c0-0.9,0.7-1.6,1.6-1.6
		C100,89.1,100.6,89.8,100.6,90.7z M97.8,108.7V94.7h2.6v14.1H97.8z"/>
	<path class="st2" d="M104.2,106.1c0.8,0.5,2.1,1,3.4,1c1.9,0,2.7-0.9,2.7-2.1c0-1.2-0.7-1.9-2.6-2.6c-2.5-0.9-3.7-2.3-3.7-4
		c0-2.3,1.8-4.1,4.9-4.1c1.4,0,2.7,0.4,3.5,0.9l-0.6,1.9c-0.6-0.3-1.6-0.8-2.9-0.8c-1.5,0-2.4,0.9-2.4,1.9c0,1.2,0.8,1.7,2.7,2.4
		c2.4,0.9,3.7,2.2,3.7,4.2c0,2.5-1.9,4.2-5.3,4.2c-1.5,0-3-0.4-4-1L104.2,106.1z"/>
	<path class="st2" d="M118.9,90.7c0,0.9-0.6,1.6-1.6,1.6c-0.9,0-1.5-0.7-1.5-1.6c0-0.9,0.7-1.6,1.6-1.6
		C118.3,89.1,118.9,89.8,118.9,90.7z M116.1,108.7V94.7h2.6v14.1H116.1z"/>
	<path class="st2" d="M126,90.6v4h3.7v1.9H126v7.6c0,1.7,0.5,2.7,1.9,2.7c0.7,0,1.2-0.1,1.5-0.2l0.1,1.9c-0.5,0.2-1.3,0.3-2.3,0.3
		c-1.2,0-2.2-0.4-2.8-1.1c-0.7-0.8-1-2-1-3.7v-7.7h-2.2v-1.9h2.2v-3.4L126,90.6z"/>
	<path class="st2" d="M137.9,108.7v-1.6l2-1.9c4.8-4.6,7-7,7-9.9c0-1.9-0.9-3.7-3.7-3.7c-1.7,0-3.1,0.9-4,1.6l-0.8-1.8
		c1.3-1.1,3.2-1.9,5.3-1.9c4.1,0,5.8,2.8,5.8,5.5c0,3.5-2.5,6.3-6.5,10.1l-1.5,1.4v0.1h8.5v2.1H137.9z"/>
	<path class="st2" d="M165.3,99.1c0,6.4-2.4,10-6.6,10c-3.7,0-6.2-3.5-6.2-9.7c0-6.3,2.7-9.8,6.6-9.8
		C163.1,89.5,165.3,93.1,165.3,99.1z M155.1,99.4c0,4.9,1.5,7.7,3.8,7.7c2.6,0,3.9-3.1,3.9-7.9c0-4.7-1.2-7.7-3.8-7.7
		C156.7,91.5,155.1,94.2,155.1,99.4z"/>
	<path class="st2" d="M173.2,92.2L173.2,92.2l-3.3,1.8l-0.5-1.9l4.1-2.2h2.2v18.9h-2.5V92.2z"/>
	<path class="st2" d="M194.9,89.8v1.7l-8.2,17.2H184l8.2-16.7V92h-9.2v-2.1H194.9z"/>
	<path class="st2" d="M214.7,99.5h-7.6v7.1h8.5v2.1h-11V89.1h10.6v2.1h-8.1v6.2h7.6V99.5z"/>
	<path class="st2" d="M220,94.7l2,3c0.5,0.8,1,1.5,1.4,2.3h0.1c0.5-0.8,0.9-1.6,1.4-2.3l2-3h2.8l-4.8,6.8l4.9,7.3h-2.9l-2.1-3.2
		c-0.6-0.8-1-1.6-1.5-2.4h-0.1c-0.5,0.8-1,1.6-1.5,2.4l-2,3.2h-2.8l5-7.2l-4.8-6.9H220z"/>
	<path class="st2" d="M232.2,99.3c0-1.8-0.1-3.3-0.1-4.6h2.3l0.1,2.4h0.1c1-1.7,2.7-2.7,5-2.7c3.4,0,6,2.9,6,7.2
		c0,5.1-3.1,7.6-6.4,7.6c-1.9,0-3.5-0.8-4.3-2.2h-0.1v7.6h-2.5V99.3z M234.8,103c0,0.4,0.1,0.7,0.1,1c0.5,1.8,2,3,3.8,3
		c2.7,0,4.3-2.2,4.3-5.4c0-2.8-1.5-5.2-4.2-5.2c-1.7,0-3.4,1.3-3.9,3.2c-0.1,0.3-0.2,0.7-0.2,1V103z"/>
	<path class="st2" d="M261.5,101.6c0,5.2-3.6,7.5-7,7.5c-3.8,0-6.7-2.8-6.7-7.2c0-4.7,3.1-7.5,7-7.5
		C258.8,94.3,261.5,97.3,261.5,101.6z M250.4,101.7c0,3.1,1.8,5.4,4.3,5.4c2.4,0,4.3-2.3,4.3-5.5c0-2.4-1.2-5.4-4.2-5.4
		C251.7,96.3,250.4,99,250.4,101.7z"/>
</g>
<path class="st3" d="M291.2,130H51.8C37.6,130,26,118.4,26,104.3V46.7C26,32.5,37.7,21,51.8,21h239.4c14.2,0,25.7,11.6,25.7,25.7
	v57.5C317,118.5,305.4,130,291.2,130z"/>
</svg>
