<?xml version="1.0" encoding="utf-8"?>
<!-- Generator: Adobe Illustrator 21.0.0, SVG Export Plug-In . SVG Version: 6.00 Build 0)  -->
<svg version="1.1" id="Layer_1" xmlns="http://www.w3.org/2000/svg" xmlns:xlink="http://www.w3.org/1999/xlink" x="0px" y="0px"
	 viewBox="0 0 520 150" style="enable-background:new 0 0 520 150;" xml:space="preserve">
<style type="text/css">
	.st0{opacity:0.5;fill:none;stroke:#FFFFFF;stroke-width:3;stroke-miterlimit:10;enable-background:new    ;}
	.st1{opacity:0.7;enable-background:new    ;}
	.st2{fill:#FFFFFF;}
	.st3{enable-background:new    ;}
	.st4{fill:#0071BC;}
</style>
<g id="Layer_1_1_">
</g>
<g id="Layer_2">
	<line class="st0" x1="57.4" y1="91.4" x2="57.4" y2="114.6"/>
	<line class="st0" x1="97.8" y1="102.6" x2="97.8" y2="114.6"/>
	<line class="st0" x1="138.3" y1="102.6" x2="138.3" y2="114.6"/>
	<line class="st0" x1="178.7" y1="102.6" x2="178.7" y2="114.6"/>
	<line class="st0" x1="219.1" y1="102.6" x2="219.1" y2="114.6"/>
	<line class="st0" x1="259.5" y1="91.4" x2="259.5" y2="114.6"/>
	<line class="st0" x1="299.9" y1="102.6" x2="299.9" y2="114.6"/>
	<line class="st0" x1="340.3" y1="102.6" x2="340.3" y2="114.6"/>
	<line class="st0" x1="380.7" y1="102.6" x2="380.7" y2="114.6"/>
	<line class="st0" x1="421.2" y1="102.6" x2="421.2" y2="114.6"/>
	<line class="st0" x1="461.6" y1="91.4" x2="461.6" y2="114.6"/>
	<g class="st1">
		<path class="st2" d="M25.8,78.8V76l2.5-2.3c4.2-3.8,6.3-5.9,6.3-8.2c0-1.6-0.9-2.8-3.2-2.8c-1.7,0-3.1,0.8-4.1,1.6L26,61.1
			c1.5-1.1,3.7-2,6.3-2c4.4,0,6.8,2.6,6.8,6.1c0,3.2-2.3,5.8-5.1,8.3L32.2,75v0.1h7.3v3.7H25.8z"/>
		<path class="st2" d="M56.5,69c0,6-2.4,10.1-7.3,10.1c-5,0-7.2-4.5-7.2-9.9c0-5.6,2.4-10,7.4-10C54.5,59.2,56.5,63.8,56.5,69z
			 M46.5,69.2c0,4.4,1,6.5,2.8,6.5s2.7-2.2,2.7-6.6c0-4.3-0.9-6.5-2.7-6.5C47.6,62.6,46.4,64.7,46.5,69.2z"/>
		<path class="st2" d="M64.4,63.5L64.4,63.5l-3.7,1.8L60,61.9l5.1-2.4h3.7v19.3h-4.4V63.5z"/>
		<path class="st2" d="M89,59.5v2.8L81,78.8h-4.8l7.9-15.5v-0.1h-8.8v-3.7H89z"/>
	</g>
	<g class="st3">
		<path class="st4" d="M227.8,78.8V76l2.5-2.3c4.2-3.8,6.3-5.9,6.3-8.2c0-1.6-0.9-2.8-3.2-2.8c-1.7,0-3.1,0.8-4.1,1.6l-1.3-3.2
			c1.5-1.1,3.7-2,6.3-2c4.4,0,6.8,2.6,6.8,6.1c0,3.2-2.3,5.8-5.1,8.3l-1.8,1.5v0.1h7.3v3.7H227.8z"/>
		<path class="st4" d="M258.5,69c0,6-2.4,10.1-7.3,10.1c-5,0-7.2-4.5-7.2-9.9c0-5.6,2.4-10,7.4-10C256.5,59.2,258.5,63.8,258.5,69z
			 M248.5,69.2c0,4.4,1,6.5,2.8,6.5s2.7-2.2,2.7-6.6c0-4.3-0.9-6.5-2.7-6.5C249.6,62.6,248.5,64.7,248.5,69.2z"/>
		<path class="st4" d="M266.5,63.5L266.5,63.5l-3.7,1.8l-0.7-3.4l5.1-2.4h3.7v19.3h-4.4V63.5z"/>
		<path class="st4" d="M276.9,73.7c0-2.3,1.3-3.9,3.4-4.8v-0.1c-1.9-0.9-2.8-2.5-2.8-4.2c0-3.3,2.9-5.4,6.8-5.4c4.5,0,6.4,2.6,6.4,5
			c0,1.7-0.9,3.3-2.8,4.2v0.1c1.9,0.7,3.5,2.3,3.5,4.8c0,3.5-2.9,5.8-7.4,5.8C279.2,79.1,276.9,76.3,276.9,73.7z M286.9,73.6
			c0-1.7-1.2-2.7-3-3.2c-1.5,0.4-2.3,1.5-2.3,2.9c0,1.4,1,2.7,2.7,2.7C285.9,76,286.9,74.9,286.9,73.6z M281.8,64.4
			c0,1.3,1.2,2.1,2.7,2.6c1-0.3,2-1.2,2-2.5c0-1.2-0.7-2.4-2.3-2.4C282.6,62.2,281.8,63.2,281.8,64.4z"/>
	</g>
	<g class="st1">
		<path class="st2" d="M429.9,78.8V76l2.5-2.3c4.2-3.8,6.3-5.9,6.3-8.2c0-1.6-0.9-2.8-3.2-2.8c-1.7,0-3.1,0.8-4.1,1.6l-1.3-3.2
			c1.5-1.1,3.7-2,6.3-2c4.4,0,6.8,2.6,6.8,6.1c0,3.2-2.3,5.8-5.1,8.3l-1.8,1.5v0.1h7.3v3.7H429.9z"/>
		<path class="st2" d="M460.6,69c0,6-2.4,10.1-7.3,10.1c-5,0-7.2-4.5-7.2-9.9c0-5.6,2.4-10,7.4-10C458.6,59.2,460.6,63.8,460.6,69z
			 M450.6,69.2c0,4.4,1,6.5,2.8,6.5s2.7-2.2,2.7-6.6c0-4.3-0.9-6.5-2.7-6.5C451.7,62.6,450.6,64.7,450.6,69.2z"/>
		<path class="st2" d="M468.6,63.5L468.6,63.5l-3.7,1.8l-0.7-3.4l5.1-2.4h3.7v19.3h-4.4V63.5z"/>
		<path class="st2" d="M480.7,75.5c0.6,0.1,1.1,0.1,2,0c1.4-0.1,2.8-0.5,3.8-1.2c1.2-0.9,2.1-2.1,2.4-3.6l-0.1,0
			c-0.9,0.9-2.1,1.4-3.9,1.4c-3.3,0-6-2.3-6-6c0-3.8,3-6.9,7.3-6.9c5,0,7.3,3.8,7.3,8.3c0,4-1.3,6.9-3.4,8.9
			c-1.8,1.7-4.4,2.6-7.4,2.7c-0.8,0.1-1.5,0-2,0V75.5z M483.5,65.8c0,1.7,0.9,3.1,2.7,3.1c1.2,0,2.1-0.6,2.5-1.3
			c0.1-0.3,0.2-0.6,0.2-1.1c0-2-0.8-4.1-2.8-4.1C484.6,62.5,483.4,63.8,483.5,65.8z"/>
	</g>
</g>
</svg>
