<?xml version="1.0" encoding="utf-8"?>
<!-- Generator: Adobe Illustrator 21.0.0, SVG Export Plug-In . SVG Version: 6.00 Build 0)  -->
<svg version="1.1" id="Layer_1" xmlns="http://www.w3.org/2000/svg" xmlns:xlink="http://www.w3.org/1999/xlink" x="0px" y="0px"
	 viewBox="0 0 429 153" style="enable-background:new 0 0 429 153;" xml:space="preserve">
<style type="text/css">
	.st0{enable-background:new    ;}
	.st1{fill:#FFFFFF;}
</style>
<g class="st0">
	<path class="st1" d="M17.2,61.8l-6.1-2.1c0.2-0.3,0.5-0.9,0.9-1.6c2.5-4.5,4.2-8,5.1-10.5l6.1,1.4c-0.9,2.2-2.4,5.4-4.4,9.6
		C18.1,60,17.5,61.1,17.2,61.8z M17.7,44.5v-21h17.5V5.9h6.3v5.6h25v5.8h-25v6.1h20.1v21H17.7z M24.2,29.3v9.4h30.9v-9.4H24.2z
		 M30.3,60.9c-0.3-1.9-1-4.8-2.1-8.9c-0.5-1.2-0.8-2.3-0.9-3l6.1-0.7c0.3,1.1,0.9,3,1.6,5.8c0.8,2.8,1.3,4.8,1.6,5.8L30.3,60.9z
		 M45,60.4c-0.6-3-2-6.9-4-11.7l6.1-0.9c0.3,0.6,0.7,1.6,1.2,3c1.4,3.6,2.4,6.3,3,8.2L45,60.4z M61.4,61.1c-0.8-1.9-2.2-4.8-4.2-8.7
		c-0.8-1.6-1.4-2.7-1.9-3.5l6.1-1.9c0.5,0.9,1.3,2.6,2.6,4.9c1.7,3.3,2.9,5.5,3.5,6.8L61.4,61.1z"/>
	<path class="st1" d="M74.7,20.9v-5.8h21V6.2h6.8v8.9h21.3v5.8h-21.3v8.9h24.8v6.1h-24.8v17.8h13.8V40.8h6.3v21h-6.3v-3H75.7v-18H82
		v12.9h13.8V35.9H71v-6.1h24.8v-8.9H74.7z"/>
	<path class="st1" d="M131.3,25.4v-5.6h5.1V6.2h5.6v13.6h4.7v5.6h-4.7V45c0.2,0,0.5-0.1,1.2-0.2c0.6-0.3,1.8-0.8,3.5-1.4
		c0,0.6,0.1,1.6,0.2,3c0,1.4,0,2.3,0,2.8c-3.1,0.9-8.3,2.7-15.4,5.1l-0.9-6.3l5.8-1.4V25.4H131.3z M181.1,61.4
		c-3.7,0-6.5-2.7-8.4-8.2c-2.5,2.6-5.5,5.5-9.1,8.7c-1.4-1.9-2.7-3.3-4-4.2c4.4-3.1,8.1-6.7,11.2-10.8c-1.3-5-2.2-13.3-2.8-25h-13.3
		v7.2h10.8c0,5.5-0.2,11.1-0.5,16.8c0.2,4.8-2,7.2-6.3,7.2c-1.4,0.2-2.7,0.2-3.7,0.2c0-0.6-0.2-1.6-0.5-3c-0.2-1.2-0.3-2.2-0.5-2.8
		c0.6,0,1.6,0,3,0c2.2,0.2,3.2-0.9,3-3c0.2-1.7,0.2-5.1,0.2-10.3h-5.6c0.2,12.2-2,21.4-6.5,27.8c-0.5-0.2-1.2-0.5-2.3-1.2
		c-1.2-0.8-2.3-1.3-3-1.6c2.6-3.7,4.4-7.3,5.1-10.8c0.8-3.3,1.2-8.6,1.2-15.9V16.5H168c-0.2-3-0.2-6.4-0.2-10.3h5.6
		c0,1.2,0.1,3,0.2,5.4c0,2.2,0,3.8,0,4.9h13.6v5.4h-13.3c0,0.9,0.1,2.2,0.2,3.7c0.3,7.2,0.7,12,1.2,14.5c2.3-4.1,4.3-8.5,5.8-13.3
		l4.9,2.1c-2.8,7.5-5.8,13.7-9.1,18.7c0,0.2,0.1,0.4,0.2,0.7c0,0.2,0.1,0.3,0.2,0.5c0.8,4.2,1.9,6.4,3.5,6.5c0.5,0,0.9-0.6,1.2-1.9
		c0.2-0.9,0.5-2.7,0.9-5.4c0-1.1,0.1-1.9,0.2-2.6c1.6,0.6,3.1,1.2,4.7,1.6c-0.5,3.9-0.9,6.9-1.4,8.9
		C185.6,59.6,183.8,61.4,181.1,61.4z M181.8,16.2c-1.9-1.9-4-4-6.3-6.3l3.7-2.8c0.8,0.6,1.9,1.6,3.3,3c1.6,1.2,2.6,2.3,3.3,3
		L181.8,16.2z"/>
	<path class="st1" d="M191.4,19.7v-5.8h25c-0.2-0.5-0.5-1.2-0.9-2.3c-0.8-2.2-1.4-3.7-1.9-4.7l7-0.9c0.3,0.8,0.7,1.9,1.2,3.3
		c0.9,2,1.6,3.6,1.9,4.7h22.9v5.8h-24.3v7.7h20.6v20.1c0.2,5.3-2.4,7.9-7.7,7.7c-2.5,0.2-5.1,0.2-8,0.2c-0.2-1.4-0.5-3.3-1.2-5.8
		c2.5,0.2,4.7,0.2,6.5,0.2c2.8,0.2,4.1-1.2,4-4V33.3h-14.3v28.8h-6.5V33.3h-13.8v22.9h-6.5V27.5h20.3v-7.7H191.4z"/>
	<path class="st1" d="M255.2,21.6v-4.4H273c0.2-0.5,0.4-1.2,0.7-2.1c0.2-0.6,0.3-1.2,0.5-1.6c-2.3,0.2-5,0.2-8,0.2
		c-2.7,0-6.5,0-11.7,0L254.1,9c16.5,0,32.7-0.4,48.6-1.2l0.7,4.7c-7.5,0.5-15,0.8-22.7,0.9l-1.4,3.7h23.4v4.4h-25l-2.1,4h31.3V30
		h-34.1c-0.8,1.4-1.6,2.7-2.6,3.7h30.6v28.3H295V60h-27.6v2.1h-5.8V42.7c-2.7,2.3-5.5,4.7-8.7,7c-0.2-0.5-0.5-1.2-0.9-2.1
		c-0.8-1.6-1.3-2.7-1.6-3.5c6.9-4.7,12-9.4,15.4-14h-14.5v-4.4H269c0.3-0.5,0.7-1.2,1.2-2.1c0.5-0.8,0.8-1.4,0.9-1.9H255.2z
		 M267.4,37.7v3.7H295v-3.7H267.4z M267.4,45.2V49H295v-3.7H267.4z M267.4,52.5v3.3H295v-3.3H267.4z"/>
	<path class="st1" d="M315.1,21.6v-4.4h17.8c0.2-0.5,0.4-1.2,0.7-2.1c0.2-0.6,0.3-1.2,0.5-1.6c-2.3,0.2-5,0.2-8,0.2
		c-2.7,0-6.5,0-11.7,0L313.9,9c16.5,0,32.7-0.4,48.6-1.2l0.7,4.7c-7.5,0.5-15,0.8-22.7,0.9l-1.4,3.7h23.4v4.4h-25l-2.1,4h31.3V30
		h-34.1c-0.8,1.4-1.6,2.7-2.6,3.7h30.6v28.3h-5.8V60h-27.6v2.1h-5.8V42.7c-2.7,2.3-5.5,4.7-8.7,7c-0.2-0.5-0.5-1.2-0.9-2.1
		c-0.8-1.6-1.3-2.7-1.6-3.5c6.9-4.7,12-9.4,15.4-14h-14.5v-4.4h17.8c0.3-0.5,0.7-1.2,1.2-2.1c0.5-0.8,0.8-1.4,0.9-1.9H315.1z
		 M327.3,37.7v3.7h27.6v-3.7H327.3z M327.3,45.2V49h27.6v-3.7H327.3z M327.3,52.5v3.3h27.6v-3.3H327.3z"/>
	<path class="st1" d="M372.4,55.3V10.9h15.9v43.3h-5.4v-4h-5.1v5.1H372.4z M377.8,16.2v28.3h5.1V16.2H377.8z M400.9,60.2
		c-5.5,0.2-8.2-2.5-8.2-8V8.8h30.6v28.5h-24.8v14c-0.2,2.7,1.2,3.9,4.2,3.7h12.4c3,0,4.7-1.2,5.1-3.7c0.5-2.5,0.9-5.2,1.2-8.2
		c0.8,0.2,2.1,0.6,4,1.4c0.8,0.2,1.3,0.3,1.6,0.5c-0.5,3.9-1,7-1.6,9.4c-0.9,3.9-4.1,5.8-9.6,5.8H400.9z M398.6,14.4v17.5h6.8V14.4
		H398.6z M417.8,14.4h-7v17.5h7V14.4z"/>
</g>
<g class="st0">
	<path class="st1" d="M21.1,103.1H8.4v-4.6h30.8v4.6H26.5v37h-5.4V103.1z"/>
	<path class="st1" d="M56.3,140.1l-0.4-3.8h-0.2c-1.7,2.3-4.9,4.4-9.1,4.4c-6.1,0-9.1-4.3-9.1-8.6c0-7.2,6.4-11.2,18-11.1v-0.6
		c0-2.5-0.7-6.9-6.8-6.9c-2.8,0-5.7,0.9-7.8,2.2l-1.2-3.6c2.5-1.6,6.1-2.7,9.8-2.7c9.1,0,11.4,6.2,11.4,12.2v11.2
		c0,2.6,0.1,5.1,0.5,7.2H56.3z M55.5,124.9c-5.9-0.1-12.7,0.9-12.7,6.7c0,3.5,2.3,5.2,5.1,5.2c3.9,0,6.4-2.5,7.2-5
		c0.2-0.6,0.3-1.2,0.3-1.7V124.9z"/>
	<path class="st1" d="M69.5,120c0-3.8-0.1-6.9-0.2-9.8h4.9l0.2,5.1h0.1c2.2-3.6,5.7-5.8,10.6-5.8c7.2,0,12.7,6.1,12.7,15.2
		c0,10.7-6.5,16.1-13.6,16.1c-4,0-7.4-1.7-9.2-4.7h-0.1v16.2h-5.4V120z M74.9,127.9c0,0.8,0.1,1.5,0.2,2.2c1,3.8,4.3,6.4,8.1,6.4
		c5.7,0,9.1-4.7,9.1-11.5c0-6-3.1-11.1-8.9-11.1c-3.7,0-7.2,2.7-8.2,6.7c-0.2,0.7-0.4,1.5-0.4,2.2V127.9z"/>
	<path class="st1" d="M144.7,124.9c0,11.1-7.7,15.9-14.9,15.9c-8.1,0-14.3-5.9-14.3-15.4c0-10,6.5-15.9,14.8-15.9
		C138.9,109.5,144.7,115.8,144.7,124.9z M121,125.2c0,6.5,3.8,11.5,9.1,11.5c5.2,0,9.1-4.9,9.1-11.6c0-5.1-2.5-11.5-9-11.5
		C123.8,113.6,121,119.5,121,125.2z"/>
	<path class="st1" d="M151.6,118.3c0-3.1-0.1-5.6-0.2-8.1h4.8l0.3,4.9h0.1c1.5-2.8,4.9-5.6,9.9-5.6c4.1,0,10.6,2.5,10.6,12.7v17.8
		h-5.4v-17.2c0-4.8-1.8-8.8-6.9-8.8c-3.6,0-6.4,2.5-7.3,5.6c-0.2,0.7-0.4,1.6-0.4,2.5v18h-5.4V118.3z"/>
	<path class="st1" d="M205.5,101.6v8.6h7.8v4.1h-7.8v16.1c0,3.7,1,5.8,4.1,5.8c1.4,0,2.5-0.2,3.1-0.4l0.2,4.1
		c-1,0.4-2.7,0.7-4.8,0.7c-2.5,0-4.6-0.8-5.9-2.3c-1.5-1.6-2.1-4.3-2.1-7.8v-16.3h-4.6v-4.1h4.6v-7.2L205.5,101.6z"/>
	<path class="st1" d="M219.4,96.3h5.4v18.6h0.1c0.9-1.5,2.2-2.9,3.9-3.8c1.6-0.9,3.5-1.5,5.6-1.5c4,0,10.4,2.5,10.4,12.8v17.8h-5.4
		v-17.2c0-4.8-1.8-8.9-6.9-8.9c-3.5,0-6.3,2.5-7.3,5.4c-0.3,0.7-0.4,1.5-0.4,2.6v18h-5.4V96.3z"/>
	<path class="st1" d="M256.7,126.1c0.1,7.3,4.8,10.4,10.2,10.4c3.9,0,6.2-0.7,8.3-1.5l0.9,3.9c-1.9,0.9-5.2,1.9-9.9,1.9
		c-9.2,0-14.7-6-14.7-15.1s5.3-16.1,14-16.1c9.8,0,12.3,8.6,12.3,14.1c0,1.1-0.1,2-0.2,2.5H256.7z M272.6,122.3
		c0.1-3.5-1.4-8.8-7.5-8.8c-5.5,0-7.9,5.1-8.3,8.8H272.6z"/>
	<path class="st1" d="M319,139c-1.4,0.7-4.6,1.7-8.6,1.7c-9,0-14.9-6.1-14.9-15.2c0-9.2,6.3-15.9,16.1-15.9c3.2,0,6.1,0.8,7.5,1.5
		l-1.2,4.2c-1.3-0.7-3.3-1.4-6.3-1.4c-6.9,0-10.6,5.1-10.6,11.3c0,6.9,4.4,11.2,10.4,11.2c3.1,0,5.1-0.8,6.7-1.5L319,139z"/>
	<path class="st1" d="M331.4,101.8c0.1,1.9-1.3,3.3-3.5,3.3c-1.9,0-3.3-1.5-3.3-3.3c0-1.9,1.4-3.4,3.4-3.4
		C330.1,98.4,331.4,99.9,331.4,101.8z M325.3,140.1v-29.9h5.4v29.9H325.3z"/>
	<path class="st1" d="M346.3,101.6v8.6h7.8v4.1h-7.8v16.1c0,3.7,1,5.8,4.1,5.8c1.4,0,2.5-0.2,3.1-0.4l0.2,4.1
		c-1,0.4-2.7,0.7-4.8,0.7c-2.5,0-4.6-0.8-5.9-2.3c-1.5-1.6-2.1-4.3-2.1-7.8v-16.3h-4.6v-4.1h4.6v-7.2L346.3,101.6z"/>
	<path class="st1" d="M366.3,101.8c0.1,1.9-1.3,3.3-3.5,3.3c-1.9,0-3.3-1.5-3.3-3.3c0-1.9,1.4-3.4,3.4-3.4
		C365,98.4,366.3,99.9,366.3,101.8z M360.2,140.1v-29.9h5.4v29.9H360.2z"/>
	<path class="st1" d="M377.7,126.1c0.1,7.3,4.8,10.4,10.2,10.4c3.9,0,6.2-0.7,8.3-1.5l0.9,3.9c-1.9,0.9-5.2,1.9-9.9,1.9
		c-9.2,0-14.7-6-14.7-15.1s5.3-16.1,14-16.1c9.8,0,12.3,8.6,12.3,14.1c0,1.1-0.1,2-0.2,2.5H377.7z M393.6,122.3
		c0.1-3.5-1.4-8.8-7.5-8.8c-5.5,0-7.9,5.1-8.3,8.8H393.6z"/>
	<path class="st1" d="M404.8,134.5c1.6,1,4.4,2.2,7.2,2.2c4,0,5.8-2,5.8-4.4c0-2.6-1.5-4-5.6-5.5c-5.4-1.9-7.9-4.9-7.9-8.5
		c0-4.8,3.9-8.8,10.3-8.8c3,0,5.7,0.9,7.3,1.9l-1.4,4c-1.2-0.7-3.3-1.7-6.1-1.7c-3.2,0-5,1.9-5,4.1c0,2.5,1.8,3.6,5.7,5.1
		c5.2,2,7.8,4.6,7.8,9c0,5.2-4.1,9-11.2,9c-3.3,0-6.3-0.8-8.4-2L404.8,134.5z"/>
</g>
</svg>
