<?xml version="1.0" encoding="utf-8"?>
<!-- Generator: Adobe Illustrator 21.0.0, SVG Export Plug-In . SVG Version: 6.00 Build 0)  -->
<svg version="1.1" id="Layer_1" xmlns="http://www.w3.org/2000/svg" xmlns:xlink="http://www.w3.org/1999/xlink" x="0px" y="0px"
	 viewBox="0 0 479 150" style="enable-background:new 0 0 479 150;" xml:space="preserve">
<style type="text/css">
	.st0{opacity:0.5;}
	.st1{enable-background:new    ;}
	.st2{fill:#FFFFFF;}
</style>
<g id="Layer_1_1_" class="st0">
	<g class="st1">
		<path d="M215.7,33.7v-5.5h13.4V14.8h5.9v49.3h-5.9v-9c-4.3,1.7-8.6,3.1-12.8,4.2l-1.3-5.7c4.2-1.1,8.9-2.5,14.1-4.2V33.7H215.7z
			 M251.8,62.9c-5.6,0.1-8.3-2.5-8.2-8V14.8h6.1v16.4c4.2-2.4,8.3-4.9,12.4-7.6l3.4,5c-5.9,3.5-11.1,6.4-15.7,8.8v16.6
			c-0.1,2.7,1,3.9,3.6,3.8h1.7c2.7,0.3,4.1-1.2,4.4-4.4c0.4-2.2,0.7-4.8,0.8-7.8c2.2,0.7,4.1,1.3,5.7,1.9c-0.1,1.1-0.4,3.1-0.8,5.9
			c-0.1,1.3-0.3,2.2-0.4,2.9c-0.7,4.6-3.8,6.8-9.2,6.5H251.8z"/>
		<path d="M271.9,62c-0.3-0.4-0.8-1.2-1.5-2.3c-0.7-1-1.3-1.7-1.7-2.1c5.9-3.1,10.5-5.9,13.9-8.6l3.6,4c-2.7,2-6.8,4.5-12.4,7.8
			C273,61.3,272.4,61.8,271.9,62z M269.2,25.5v-5h22.7c-0.1-0.7-0.5-1.7-1-2.9c-0.4-1.3-0.8-2.2-1-2.7l6.5-0.6
			c0.1,0.4,0.3,1,0.6,1.9c0.3,0.6,0.8,2,1.5,4.4h20.8v5H269.2z M275.1,46.7V30.1h38.4v16.6H298V57c0.3,4.5-2,6.8-6.7,6.9
			c-0.7,0-1.8,0.1-3.4,0.2c-1.4,0-2.5,0-3.4,0c-0.1-2-0.6-3.8-1.3-5.5c0.4,0,1,0,1.9,0c1.5,0.1,2.8,0.1,3.8,0
			c2.4,0.1,3.5-0.8,3.4-2.7v-9.2H275.1z M281,35v6.9h26.9V35H281z M315.8,61.6c-2.8-1.8-6.9-4.1-12.2-6.9c-0.7-0.4-1.3-0.8-1.7-1
			l3.1-4.2c5.6,3.1,10.2,5.7,13.9,7.8L315.8,61.6z"/>
	</g>
	<g class="st1">
		<path d="M194.4,88.8c2-0.4,5.3-0.8,8.5-0.8c4.7,0,7.7,0.8,9.9,2.6c1.9,1.4,3,3.5,3,6.4c0,3.5-2.3,6.6-6.1,8v0.1
			c3.4,0.9,7.5,3.7,7.5,9.1c0,3.1-1.2,5.5-3.1,7.3c-2.5,2.3-6.6,3.4-12.5,3.4c-3.2,0-5.7-0.2-7.3-0.4V88.8z M199,103.6h4.2
			c4.9,0,7.8-2.6,7.8-6.1c0-4.2-3.2-5.9-8-5.9c-2.2,0-3.4,0.2-4.1,0.3V103.6z M199,121c0.9,0.2,2.3,0.2,3.9,0.2c4.8,0,9.3-1.8,9.3-7
			c0-4.9-4.2-7-9.4-7H199V121z"/>
		<path d="M226.2,112.4c0.1,6.4,4.2,9,8.9,9c3.4,0,5.4-0.6,7.2-1.3l0.8,3.4c-1.7,0.8-4.5,1.6-8.7,1.6c-8,0-12.8-5.3-12.8-13.1
			s4.6-14,12.2-14c8.5,0,10.8,7.5,10.8,12.3c0,1-0.1,1.7-0.2,2.2H226.2z M240,109c0.1-3-1.2-7.7-6.6-7.7c-4.8,0-6.9,4.4-7.3,7.7H240
			z"/>
		<path d="M255.7,91.2c0.1,1.6-1.1,2.9-3,2.9c-1.7,0-2.8-1.3-2.8-2.9c0-1.7,1.2-3,3-3C254.6,88.2,255.7,89.5,255.7,91.2z
			 M250.5,124.5v-26h4.7v26H250.5z"/>
		<path d="M256.7,132.1c2.2-0.2,4-0.8,5.2-2c1.3-1.5,1.8-3.5,1.8-9.8V98.5h4.7v23.6c0,5.1-0.8,8.3-3.1,10.7c-2.1,2.1-5.5,3-8.1,3
			L256.7,132.1z M268.9,91.2c0.1,1.6-1.1,2.9-3,2.9c-1.8,0-2.9-1.3-2.9-2.9c0-1.7,1.2-3,3-3C267.8,88.2,268.9,89.5,268.9,91.2z"/>
		<path d="M281.4,91.2c0.1,1.6-1.1,2.9-3,2.9c-1.7,0-2.8-1.3-2.8-2.9c0-1.7,1.2-3,3-3C280.3,88.2,281.4,89.5,281.4,91.2z
			 M276.1,124.5v-26h4.7v26H276.1z"/>
		<path d="M288.7,105.6c0-2.7-0.1-4.9-0.2-7h4.2l0.3,4.3h0.1c1.3-2.5,4.3-4.9,8.6-4.9c3.6,0,9.2,2.2,9.2,11.1v15.5h-4.7v-15
			c0-4.2-1.6-7.7-6-7.7c-3.1,0-5.5,2.2-6.3,4.8c-0.2,0.6-0.3,1.4-0.3,2.2v15.6h-4.7V105.6z"/>
		<path d="M340.9,98.5c-0.1,1.9-0.2,4-0.2,7.2v15.1c0,6-1.2,9.6-3.7,11.9c-2.5,2.4-6.2,3.1-9.5,3.1c-3.1,0-6.6-0.8-8.7-2.2l1.2-3.6
			c1.7,1.1,4.4,2,7.6,2c4.8,0,8.4-2.5,8.4-9.1v-2.9H336c-1.5,2.4-4.2,4.4-8.3,4.4c-6.5,0-11.1-5.5-11.1-12.7
			c0-8.8,5.8-13.8,11.7-13.8c4.5,0,7,2.4,8.1,4.5h0.1l0.2-3.9H340.9z M336,108.8c0-0.8-0.1-1.5-0.3-2.2c-0.9-2.7-3.2-5-6.6-5
			c-4.5,0-7.7,3.8-7.7,9.8c0,5.1,2.6,9.4,7.7,9.4c2.9,0,5.5-1.8,6.6-4.8c0.3-0.8,0.4-1.7,0.4-2.5V108.8z"/>
	</g>
</g>
<g id="Layer_2">
	<g class="st1">
		<path class="st2" d="M212,30v-5.5h13.4V11.1h5.9v49.3h-5.9v-9c-4.3,1.7-8.6,3.1-12.8,4.2l-1.3-5.7c4.2-1.1,8.9-2.5,14.1-4.2V30
			H212z M248.1,59.2c-5.6,0.1-8.3-2.5-8.2-8V11.1h6.1v16.4c4.2-2.4,8.3-4.9,12.4-7.6l3.4,5c-5.9,3.5-11.1,6.4-15.7,8.8v16.6
			c-0.1,2.7,1,3.9,3.6,3.8h1.7c2.7,0.3,4.1-1.2,4.4-4.4c0.4-2.2,0.7-4.8,0.8-7.8c2.2,0.7,4.1,1.3,5.7,1.9c-0.1,1.1-0.4,3.1-0.8,5.9
			c-0.1,1.3-0.3,2.2-0.4,2.9c-0.7,4.6-3.8,6.8-9.2,6.5H248.1z"/>
		<path class="st2" d="M268.2,58.3c-0.3-0.4-0.8-1.2-1.5-2.3c-0.7-1-1.3-1.7-1.7-2.1c5.9-3.1,10.5-5.9,13.9-8.6l3.6,4
			c-2.7,2-6.8,4.5-12.4,7.8C269.3,57.6,268.7,58.1,268.2,58.3z M265.5,21.8v-5h22.7c-0.1-0.7-0.5-1.7-1-2.9c-0.4-1.3-0.8-2.2-1-2.7
			l6.5-0.6c0.1,0.4,0.3,1,0.6,1.9c0.3,0.6,0.8,2,1.5,4.4h20.8v5H265.5z M271.4,43V26.4h38.4V43h-15.5v10.3c0.3,4.5-2,6.8-6.7,6.9
			c-0.7,0-1.8,0.1-3.4,0.2c-1.4,0-2.5,0-3.4,0c-0.1-2-0.6-3.8-1.3-5.5c0.4,0,1,0,1.9,0c1.5,0.1,2.8,0.1,3.8,0
			c2.4,0.1,3.5-0.8,3.4-2.7V43H271.4z M277.3,31.3v6.9h26.9v-6.9H277.3z M312.1,57.9c-2.8-1.8-6.9-4.1-12.2-6.9
			c-0.7-0.4-1.3-0.8-1.7-1l3.1-4.2c5.6,3.1,10.2,5.7,13.9,7.8L312.1,57.9z"/>
	</g>
	<g class="st1">
		<path class="st2" d="M190.7,85.1c2-0.4,5.3-0.8,8.5-0.8c4.7,0,7.7,0.8,9.9,2.6c1.9,1.4,3,3.5,3,6.4c0,3.5-2.3,6.6-6.1,8v0.1
			c3.4,0.9,7.5,3.7,7.5,9.1c0,3.1-1.2,5.5-3.1,7.3c-2.5,2.3-6.6,3.4-12.5,3.4c-3.2,0-5.7-0.2-7.3-0.4V85.1z M195.3,99.9h4.2
			c4.9,0,7.8-2.6,7.8-6.1c0-4.2-3.2-5.9-8-5.9c-2.1,0-3.4,0.2-4.1,0.3V99.9z M195.3,117.3c0.9,0.2,2.3,0.2,3.9,0.2
			c4.8,0,9.3-1.8,9.3-7c0-4.9-4.2-7-9.4-7h-3.9V117.3z"/>
		<path class="st2" d="M222.5,108.7c0.1,6.4,4.2,9,8.9,9c3.4,0,5.4-0.6,7.2-1.3l0.8,3.4c-1.7,0.8-4.5,1.6-8.7,1.6
			c-8,0-12.8-5.3-12.8-13.1s4.6-14,12.2-14c8.5,0,10.8,7.5,10.8,12.3c0,1-0.1,1.7-0.2,2.2H222.5z M236.3,105.3
			c0.1-3-1.2-7.7-6.6-7.7c-4.8,0-6.9,4.4-7.3,7.7H236.3z"/>
		<path class="st2" d="M252,87.5c0.1,1.6-1.1,2.9-3,2.9c-1.7,0-2.8-1.3-2.8-2.9c0-1.7,1.2-3,3-3C250.9,84.5,252,85.8,252,87.5z
			 M246.8,120.8v-26h4.7v26H246.8z"/>
		<path class="st2" d="M253,128.4c2.2-0.2,4-0.8,5.2-2c1.3-1.5,1.8-3.5,1.8-9.8V94.8h4.7v23.6c0,5.1-0.8,8.3-3.1,10.7
			c-2.1,2.1-5.5,3-8.1,3L253,128.4z M265.2,87.5c0.1,1.6-1.1,2.9-3,2.9c-1.8,0-2.9-1.3-2.9-2.9c0-1.7,1.2-3,3-3
			C264.1,84.5,265.2,85.8,265.2,87.5z"/>
		<path class="st2" d="M277.7,87.5c0.1,1.6-1.1,2.9-3,2.9c-1.7,0-2.8-1.3-2.8-2.9c0-1.7,1.2-3,3-3C276.5,84.5,277.7,85.8,277.7,87.5
			z M272.4,120.8v-26h4.7v26H272.4z"/>
		<path class="st2" d="M285,101.8c0-2.7-0.1-4.9-0.2-7h4.2l0.3,4.3h0.1c1.3-2.5,4.3-4.9,8.6-4.9c3.6,0,9.2,2.2,9.2,11.1v15.5h-4.7
			v-15c0-4.2-1.6-7.7-6-7.7c-3.1,0-5.5,2.2-6.3,4.8c-0.2,0.6-0.3,1.4-0.3,2.2v15.6H285V101.8z"/>
		<path class="st2" d="M337.2,94.8c-0.1,1.9-0.2,4-0.2,7.2v15.1c0,6-1.2,9.6-3.7,11.9c-2.5,2.4-6.2,3.1-9.5,3.1
			c-3.1,0-6.6-0.8-8.7-2.2l1.2-3.6c1.7,1.1,4.4,2,7.6,2c4.8,0,8.4-2.5,8.4-9.1v-2.9h-0.1c-1.5,2.4-4.2,4.4-8.3,4.4
			c-6.5,0-11.1-5.5-11.1-12.7c0-8.8,5.8-13.8,11.7-13.8c4.5,0,7,2.4,8.1,4.5h0.1l0.2-3.9H337.2z M332.3,105.1c0-0.8-0.1-1.5-0.3-2.2
			c-0.9-2.7-3.2-5-6.6-5c-4.5,0-7.7,3.8-7.7,9.8c0,5.1,2.6,9.4,7.7,9.4c2.9,0,5.5-1.8,6.6-4.8c0.3-0.8,0.4-1.7,0.4-2.5V105.1z"/>
	</g>
</g>
<g id="Layer_1_2_" class="st0">
	<g>
		<g>
			<path d="M89.5,23c30.6,0,55.5,24.9,55.5,55.5S120.1,134,89.5,134S34,109.1,34,78.5S58.9,23,89.5,23 M89.5,17
				C55.5,17,28,44.5,28,78.5S55.5,140,89.5,140S151,112.5,151,78.5S123.5,17,89.5,17L89.5,17z"/>
		</g>
		<g>
			<path d="M89.5,53c14.1,0,25.5,11.4,25.5,25.5S103.6,104,89.5,104S64,92.6,64,78.5S75.4,53,89.5,53 M89.5,51
				C74.3,51,62,63.3,62,78.5S74.3,106,89.5,106S117,93.7,117,78.5S104.7,51,89.5,51L89.5,51z"/>
		</g>
	</g>
</g>
<g id="Layer_2_1_">
	<g>
		<g>
			<path class="st2" d="M85.5,18c30.6,0,55.5,24.9,55.5,55.5S116.1,129,85.5,129S30,104.1,30,73.5S54.9,18,85.5,18 M85.5,12
				C51.5,12,24,39.5,24,73.5S51.5,135,85.5,135S147,107.5,147,73.5S119.5,12,85.5,12L85.5,12z"/>
		</g>
		<g>
			<path class="st2" d="M85.5,48C99.6,48,111,59.4,111,73.5S99.6,99,85.5,99S60,87.6,60,73.5S71.4,48,85.5,48 M85.5,46
				C70.3,46,58,58.3,58,73.5S70.3,101,85.5,101S113,88.7,113,73.5S100.7,46,85.5,46L85.5,46z"/>
		</g>
	</g>
</g>
</svg>
