<?xml version="1.0" encoding="utf-8"?>
<!-- Generator: Adobe Illustrator 21.0.0, SVG Export Plug-In . SVG Version: 6.00 Build 0)  -->
<svg version="1.1" id="Layer_1" xmlns="http://www.w3.org/2000/svg" xmlns:xlink="http://www.w3.org/1999/xlink" x="0px" y="0px"
	 viewBox="0 0 479 150" style="enable-background:new 0 0 479 150;" xml:space="preserve">
<style type="text/css">
	.st0{opacity:0.5;}
	.st1{enable-background:new    ;}
	.st2{fill:#FFFFFF;}
</style>
<g id="Layer_1_1_" class="st0">
	<g class="st1">
		<path d="M246.4,40.2c-2.9-2.7-5.7-5.1-8.4-7.3l3.6-4c3.2,2.2,6.2,4.6,8.8,6.9L246.4,40.2z M244.9,64.4l-5.5-1.9
			c2.1-6.3,3.9-12.6,5.5-18.9c0.7,0.3,2,0.8,4,1.5c0.7,0.1,1.2,0.3,1.5,0.4C249.2,49.4,247.4,55.7,244.9,64.4z M248.7,26.6
			c-2.9-2.8-5.7-5.3-8.4-7.6l3.8-3.8c3.1,2.2,5.9,4.6,8.6,6.9L248.7,26.6z M287.7,43.6c-7.6-1.7-13.3-3.6-17.2-5.7
			c-4.5,2.2-10.4,4.3-17.8,6.1c-0.6-1.4-1.3-3.1-2.1-5c7-1.7,11.9-3.1,14.7-4.4c-2.2-1.7-4.3-3.8-6.1-6.3c-0.6,0.6-1.3,1.4-2.3,2.5
			c-1,1.1-1.8,2-2.3,2.5c-1.1-1.3-2.3-2.7-3.6-4.2c4.5-4.1,8.1-9,10.9-14.9l5.7,0.6c-0.7,1.7-1.5,3.1-2.3,4.4h20.4v5
			c-3.1,4.6-6.4,8.1-9.9,10.5c3.8,1.4,8.3,2.5,13.6,3.4C289,39.8,288.4,41.6,287.7,43.6z M255.6,64.6V44.2H285v20.4h-5.5v-2.7h-18.5
			v2.7H255.6z M261.1,49.2v8.2h18.5v-8.2H261.1z M279.3,24h-16.8c2.1,3.2,4.8,5.9,8,8C273.6,30.3,276.5,27.7,279.3,24z"/>
		<path d="M293,29.5v-5.2h7.3v-9.7h5.7v9.7h7.1v5.2H306v4.6c2,1.4,4.8,3.6,8.4,6.5l-3.1,4.6c-2.2-2.2-4-3.9-5.2-5v24.4h-5.7V39.8
			c-2,5-4.4,9.3-7.3,12.8c-0.3-2-0.8-4.4-1.5-7.3c3.8-4.5,6.6-9.7,8.6-15.7H293z M314,64.6c0-0.1-0.1-0.3-0.2-0.4
			c-1.1-2-2.1-3.5-2.9-4.6c11.3-3.9,20.7-9.9,28.1-17.8l4.2,4C334.8,54.1,325,60.4,314,64.6z M317.7,48c-0.3-0.4-0.6-1-1-1.7
			c-1-1.5-1.8-2.6-2.3-3.2c8.1-3.8,15.4-8.7,21.8-14.9l4.2,3.8C333.3,38.7,325.7,44.1,317.7,48z M318.2,32.2c-0.8-1.5-2-3.1-3.4-4.8
			c7.6-3.5,14.1-7.8,19.5-13l4,4C332,24,325.3,28.6,318.2,32.2z"/>
		<path d="M346.9,22.4v-4.6h18.3v4.6h-7.3c-0.7,3.8-1.7,7.2-2.9,10.3h8.8v25.4c3.8-4.2,5.5-11.8,5.3-22.7V17.1h18.7V56
			c0,1.5,0.5,2.2,1.5,2.1h0.6c1.1,0,1.7-0.8,1.9-2.5c0.1-1,0.3-3,0.4-6.1c0.1-1.4,0.2-2.4,0.2-3.1c1.5,0.4,2.9,0.8,4.2,1.3
			c-0.3,4.8-0.6,8.1-0.8,10.1c-0.4,3.5-2.2,5.2-5.5,5.2h-2.5c-3.6,0-5.5-2-5.5-5.9V22.4h-7.8v13.2c0,7.6-0.6,13.3-1.7,17.2
			c-1.1,3.8-3.4,7.7-6.7,11.8c-1.3-1.3-2.8-2.6-4.6-4c0.3-0.3,0.7-0.8,1.3-1.5c0.6-0.4,0.9-0.7,1-0.8h-9.2v3.6h-4.6V42.9
			c-0.3,0.4-0.8,1.1-1.5,2.1c-0.6,0.8-1,1.5-1.5,2.1l-1.7-5.9c3.6-5.2,6.2-11.5,7.6-18.9H346.9z M354.5,37.3v16.4h5V37.3H354.5z"/>
	</g>
	<g class="st1">
		<path d="M187.3,88.3h4.7v32.3h15.5v3.9h-20.2V88.3z"/>
		<path d="M235.3,111.3c0,9.6-6.7,13.8-13,13.8c-7,0-12.5-5.2-12.5-13.4c0-8.7,5.7-13.8,12.9-13.8
			C230.2,97.9,235.3,103.4,235.3,111.3z M214.6,111.6c0,5.7,3.3,10,7.9,10c4.5,0,7.9-4.2,7.9-10.1c0-4.4-2.2-10-7.8-10
			S214.6,106.6,214.6,111.6z"/>
		<path d="M240.6,119.7c1.4,0.9,3.9,1.9,6.2,1.9c3.4,0,5.1-1.7,5.1-3.9c0-2.3-1.3-3.5-4.8-4.8c-4.7-1.7-6.9-4.2-6.9-7.4
			c0-4.2,3.4-7.6,9-7.6c2.6,0,4.9,0.8,6.4,1.6l-1.2,3.4c-1-0.6-2.9-1.5-5.3-1.5c-2.8,0-4.4,1.6-4.4,3.5c0,2.2,1.6,3.1,4.9,4.4
			c4.5,1.7,6.8,4,6.8,7.8c0,4.6-3.5,7.8-9.7,7.8c-2.8,0-5.5-0.7-7.3-1.8L240.6,119.7z"/>
		<path d="M280,113.1l-3.8,11.4h-4.8l12.3-36.2h5.6l12.4,36.2h-5l-3.9-11.4H280z M291.8,109.5l-3.5-10.4c-0.8-2.4-1.3-4.5-1.9-6.6
			h-0.1c-0.5,2.2-1.1,4.4-1.8,6.6l-3.5,10.5H291.8z"/>
		<path d="M306.7,105.6c0-2.7-0.1-4.9-0.2-7h4.2l0.3,4.3h0.1c1.3-2.5,4.3-4.9,8.6-4.9c3.6,0,9.2,2.2,9.2,11.1v15.5h-4.7v-15
			c0-4.2-1.6-7.7-6-7.7c-3.1,0-5.5,2.2-6.3,4.8c-0.2,0.6-0.3,1.4-0.3,2.2v15.6h-4.7V105.6z"/>
		<path d="M358.9,98.5c-0.1,1.9-0.2,4-0.2,7.2v15.1c0,6-1.2,9.6-3.7,11.9c-2.5,2.4-6.2,3.1-9.5,3.1c-3.1,0-6.6-0.8-8.7-2.2l1.2-3.6
			c1.7,1.1,4.4,2,7.6,2c4.8,0,8.4-2.5,8.4-9.1v-2.9H354c-1.5,2.4-4.2,4.4-8.3,4.4c-6.5,0-11.1-5.5-11.1-12.7
			c0-8.8,5.8-13.8,11.7-13.8c4.5,0,7,2.4,8.1,4.5h0.1l0.2-3.9H358.9z M354,108.8c0-0.8-0.1-1.5-0.3-2.2c-0.9-2.7-3.2-5-6.6-5
			c-4.5,0-7.7,3.8-7.7,9.8c0,5.1,2.6,9.4,7.7,9.4c2.9,0,5.5-1.8,6.6-4.8c0.3-0.8,0.4-1.7,0.4-2.5V108.8z"/>
		<path d="M369.2,112.4c0.1,6.4,4.2,9,8.9,9c3.4,0,5.4-0.6,7.2-1.3l0.8,3.4c-1.7,0.8-4.5,1.6-8.7,1.6c-8,0-12.8-5.3-12.8-13.1
			s4.6-14,12.2-14c8.5,0,10.8,7.5,10.8,12.3c0,1-0.1,1.7-0.2,2.2H369.2z M383,109c0.1-3-1.2-7.7-6.6-7.7c-4.8,0-6.9,4.4-7.3,7.7H383
			z"/>
		<path d="M393.5,86.4h4.7v38.2h-4.7V86.4z"/>
		<path d="M408.8,112.4c0.1,6.4,4.2,9,8.9,9c3.4,0,5.4-0.6,7.2-1.3l0.8,3.4c-1.7,0.8-4.5,1.6-8.7,1.6c-8,0-12.8-5.3-12.8-13.1
			s4.6-14,12.2-14c8.5,0,10.8,7.5,10.8,12.3c0,1-0.1,1.7-0.2,2.2H408.8z M422.7,109c0.1-3-1.2-7.7-6.6-7.7c-4.8,0-6.9,4.4-7.3,7.7
			H422.7z"/>
		<path d="M432.4,119.7c1.4,0.9,3.9,1.9,6.2,1.9c3.4,0,5.1-1.7,5.1-3.9c0-2.3-1.3-3.5-4.8-4.8c-4.7-1.7-6.9-4.2-6.9-7.4
			c0-4.2,3.4-7.6,9-7.6c2.6,0,4.9,0.8,6.4,1.6l-1.2,3.4c-1-0.6-2.9-1.5-5.3-1.5c-2.8,0-4.4,1.6-4.4,3.5c0,2.2,1.6,3.1,4.9,4.4
			c4.5,1.7,6.8,4,6.8,7.8c0,4.6-3.5,7.8-9.7,7.8c-2.8,0-5.5-0.7-7.3-1.8L432.4,119.7z"/>
	</g>
</g>
<g id="Layer_2">
	<g class="st1">
		<path class="st2" d="M242.6,36.5c-2.9-2.7-5.7-5.1-8.4-7.3l3.6-4c3.2,2.2,6.2,4.6,8.8,6.9L242.6,36.5z M241.2,60.6l-5.5-1.9
			c2.1-6.3,3.9-12.6,5.5-18.9c0.7,0.3,2,0.8,4,1.5c0.7,0.1,1.2,0.3,1.5,0.4C245.5,45.7,243.7,52,241.2,60.6z M245,22.9
			c-2.9-2.8-5.7-5.3-8.4-7.6l3.8-3.8c3.1,2.2,5.9,4.6,8.6,6.9L245,22.9z M284,39.9c-7.6-1.7-13.3-3.6-17.2-5.7
			c-4.5,2.2-10.4,4.3-17.8,6.1c-0.6-1.4-1.3-3.1-2.1-5c7-1.7,11.9-3.1,14.7-4.4c-2.2-1.7-4.3-3.8-6.1-6.3c-0.6,0.6-1.3,1.4-2.3,2.5
			c-1,1.1-1.8,2-2.3,2.5c-1.1-1.3-2.3-2.7-3.6-4.2c4.5-4.1,8.1-9,10.9-14.9l5.7,0.6c-0.7,1.7-1.5,3.1-2.3,4.4h20.4v5
			c-3.1,4.6-6.4,8.1-9.9,10.5c3.8,1.4,8.3,2.5,13.6,3.4C285.3,36.1,284.7,37.9,284,39.9z M251.9,60.9V40.5h29.4v20.4h-5.5v-2.7
			h-18.5v2.7H251.9z M257.3,45.5v8.2h18.5v-8.2H257.3z M275.6,20.3h-16.8c2.1,3.2,4.8,5.9,8,8C269.9,26.6,272.8,24,275.6,20.3z"/>
		<path class="st2" d="M289.3,25.8v-5.2h7.3v-9.7h5.7v9.7h7.1v5.2h-7.1v4.6c2,1.4,4.8,3.6,8.4,6.5l-3.1,4.6c-2.2-2.2-4-3.9-5.2-5
			v24.4h-5.7V36.1c-2,5-4.4,9.3-7.3,12.8c-0.3-2-0.8-4.4-1.5-7.3c3.8-4.5,6.6-9.7,8.6-15.7H289.3z M310.3,60.9
			c0-0.1-0.1-0.3-0.2-0.4c-1.1-2-2.1-3.5-2.9-4.6c11.3-3.9,20.7-9.9,28.1-17.8l4.2,4C331,50.4,321.3,56.7,310.3,60.9z M314,44.3
			c-0.3-0.4-0.6-1-1-1.7c-1-1.5-1.8-2.6-2.3-3.2c8.1-3.8,15.4-8.7,21.8-14.9l4.2,3.8C329.6,35,322,40.4,314,44.3z M314.5,28.5
			c-0.8-1.5-2-3.1-3.4-4.8c7.6-3.5,14.1-7.8,19.5-13l4,4C328.3,20.3,321.6,24.9,314.5,28.5z"/>
		<path class="st2" d="M343.2,18.7V14h18.3v4.6h-7.3c-0.7,3.8-1.7,7.2-2.9,10.3h8.8v25.4c3.8-4.2,5.5-11.8,5.2-22.7V13.4H384v38.8
			c0,1.5,0.5,2.2,1.5,2.1h0.6c1.1,0,1.7-0.8,1.9-2.5c0.1-1,0.3-3,0.4-6.1c0.1-1.4,0.2-2.4,0.2-3.1c1.5,0.4,2.9,0.8,4.2,1.3
			c-0.3,4.8-0.6,8.1-0.8,10.1c-0.4,3.5-2.2,5.2-5.5,5.2H384c-3.6,0-5.5-2-5.5-5.9V18.7h-7.8v13.2c0,7.6-0.6,13.3-1.7,17.2
			c-1.1,3.8-3.4,7.7-6.7,11.8c-1.3-1.3-2.8-2.6-4.6-4c0.3-0.3,0.7-0.8,1.3-1.5c0.6-0.4,0.9-0.7,1-0.8h-9.2v3.6h-4.6V39.2
			c-0.3,0.4-0.8,1.1-1.5,2.1c-0.6,0.8-1,1.5-1.5,2.1l-1.7-5.9c3.6-5.2,6.2-11.5,7.6-18.9H343.2z M350.8,33.6v16.4h5V33.6H350.8z"/>
	</g>
	<g class="st1">
		<path class="st2" d="M183.6,84.6h4.7v32.3h15.5v3.9h-20.2V84.6z"/>
		<path class="st2" d="M231.6,107.6c0,9.6-6.7,13.8-13,13.8c-7,0-12.5-5.2-12.5-13.4c0-8.7,5.7-13.8,12.9-13.8
			C226.5,94.2,231.6,99.6,231.6,107.6z M210.9,107.9c0,5.7,3.3,10,7.9,10c4.5,0,7.9-4.2,7.9-10.1c0-4.4-2.2-10-7.8-10
			S210.9,102.9,210.9,107.9z"/>
		<path class="st2" d="M236.9,116c1.4,0.9,3.9,1.9,6.2,1.9c3.4,0,5.1-1.7,5.1-3.9c0-2.3-1.3-3.5-4.8-4.8c-4.7-1.7-6.9-4.2-6.9-7.4
			c0-4.2,3.4-7.6,9-7.6c2.6,0,4.9,0.8,6.4,1.6l-1.2,3.4c-1-0.6-2.9-1.5-5.3-1.5c-2.8,0-4.4,1.6-4.4,3.5c0,2.2,1.6,3.1,4.9,4.4
			c4.5,1.7,6.8,4,6.8,7.8c0,4.6-3.5,7.8-9.7,7.8c-2.8,0-5.5-0.7-7.3-1.8L236.9,116z"/>
		<path class="st2" d="M276.2,109.4l-3.8,11.4h-4.8L280,84.6h5.6l12.4,36.2h-5l-3.9-11.4H276.2z M288.1,105.8l-3.5-10.4
			c-0.8-2.4-1.3-4.5-1.9-6.6h-0.1c-0.5,2.2-1.1,4.4-1.8,6.6l-3.5,10.5H288.1z"/>
		<path class="st2" d="M303,101.8c0-2.7-0.1-4.9-0.2-7h4.2l0.3,4.3h0.1c1.3-2.5,4.3-4.9,8.6-4.9c3.6,0,9.2,2.2,9.2,11.1v15.5h-4.7
			v-15c0-4.2-1.6-7.7-6-7.7c-3.1,0-5.5,2.2-6.3,4.8c-0.2,0.6-0.3,1.4-0.3,2.2v15.6H303V101.8z"/>
		<path class="st2" d="M355.2,94.8c-0.1,1.9-0.2,4-0.2,7.2v15.1c0,6-1.2,9.6-3.7,11.9c-2.5,2.4-6.2,3.1-9.5,3.1
			c-3.1,0-6.6-0.8-8.7-2.2l1.2-3.6c1.7,1.1,4.4,2,7.6,2c4.8,0,8.4-2.5,8.4-9.1v-2.9h-0.1c-1.5,2.4-4.2,4.4-8.3,4.4
			c-6.5,0-11.1-5.5-11.1-12.7c0-8.8,5.8-13.8,11.7-13.8c4.5,0,7,2.4,8.1,4.5h0.1l0.2-3.9H355.2z M350.3,105.1c0-0.8-0.1-1.5-0.3-2.2
			c-0.9-2.7-3.2-5-6.6-5c-4.5,0-7.7,3.8-7.7,9.8c0,5.1,2.6,9.4,7.7,9.4c2.9,0,5.5-1.8,6.6-4.8c0.3-0.8,0.4-1.7,0.4-2.5V105.1z"/>
		<path class="st2" d="M365.5,108.7c0.1,6.4,4.2,9,8.9,9c3.4,0,5.4-0.6,7.2-1.3l0.8,3.4c-1.7,0.8-4.5,1.6-8.7,1.6
			c-8,0-12.8-5.3-12.8-13.1s4.6-14,12.2-14c8.5,0,10.8,7.5,10.8,12.3c0,1-0.1,1.7-0.2,2.2H365.5z M379.3,105.3
			c0.1-3-1.2-7.7-6.6-7.7c-4.8,0-6.9,4.4-7.3,7.7H379.3z"/>
		<path class="st2" d="M389.8,82.7h4.7v38.2h-4.7V82.7z"/>
		<path class="st2" d="M405.1,108.7c0.1,6.4,4.2,9,8.9,9c3.4,0,5.4-0.6,7.2-1.3l0.8,3.4c-1.7,0.8-4.5,1.6-8.7,1.6
			c-8,0-12.8-5.3-12.8-13.1s4.6-14,12.2-14c8.5,0,10.8,7.5,10.8,12.3c0,1-0.1,1.7-0.2,2.2H405.1z M419,105.3c0.1-3-1.2-7.7-6.6-7.7
			c-4.8,0-6.9,4.4-7.3,7.7H419z"/>
		<path class="st2" d="M428.7,116c1.4,0.9,3.9,1.9,6.2,1.9c3.4,0,5.1-1.7,5.1-3.9c0-2.3-1.3-3.5-4.8-4.8c-4.7-1.7-6.9-4.2-6.9-7.4
			c0-4.2,3.4-7.6,9-7.6c2.6,0,4.9,0.8,6.4,1.6l-1.2,3.4c-1-0.6-2.9-1.5-5.3-1.5c-2.8,0-4.4,1.6-4.4,3.5c0,2.2,1.6,3.1,4.9,4.4
			c4.5,1.7,6.8,4,6.8,7.8c0,4.6-3.5,7.8-9.7,7.8c-2.8,0-5.5-0.7-7.3-1.8L428.7,116z"/>
	</g>
</g>
<g id="Layer_1_2_" class="st0">
	<g>
		<g>
			<path d="M89.5,23c30.6,0,55.5,24.9,55.5,55.5S120.1,134,89.5,134S34,109.1,34,78.5S58.9,23,89.5,23 M89.5,17
				C55.5,17,28,44.5,28,78.5S55.5,140,89.5,140S151,112.5,151,78.5S123.5,17,89.5,17L89.5,17z"/>
		</g>
		<g>
			<path d="M89.5,53c14.1,0,25.5,11.4,25.5,25.5S103.6,104,89.5,104S64,92.6,64,78.5S75.4,53,89.5,53 M89.5,51
				C74.3,51,62,63.3,62,78.5S74.3,106,89.5,106S117,93.7,117,78.5S104.7,51,89.5,51L89.5,51z"/>
		</g>
	</g>
</g>
<g id="Layer_2_1_">
	<g>
		<g>
			<path class="st2" d="M85.5,18c30.6,0,55.5,24.9,55.5,55.5S116.1,129,85.5,129S30,104.1,30,73.5S54.9,18,85.5,18 M85.5,12
				C51.5,12,24,39.5,24,73.5S51.5,135,85.5,135S147,107.5,147,73.5S119.5,12,85.5,12L85.5,12z"/>
		</g>
		<g>
			<path class="st2" d="M85.5,48C99.6,48,111,59.4,111,73.5S99.6,99,85.5,99S60,87.6,60,73.5S71.4,48,85.5,48 M85.5,46
				C70.3,46,58,58.3,58,73.5S70.3,101,85.5,101S113,88.7,113,73.5S100.7,46,85.5,46L85.5,46z"/>
		</g>
	</g>
</g>
</svg>
