<?xml version="1.0" encoding="utf-8"?>
<!-- Generator: Adobe Illustrator 21.0.0, SVG Export Plug-In . SVG Version: 6.00 Build 0)  -->
<svg version="1.1" id="Layer_1" xmlns="http://www.w3.org/2000/svg" xmlns:xlink="http://www.w3.org/1999/xlink" x="0px" y="0px"
	 viewBox="0 0 479 150" style="enable-background:new 0 0 479 150;" xml:space="preserve">
<style type="text/css">
	.st0{opacity:0.5;}
	.st1{enable-background:new    ;}
	.st2{fill:#FFFFFF;}
</style>
<g id="Layer_1_1_" class="st0">
	<g class="st1">
		<path d="M227.6,62.5c-5.7,0-8.6-2.7-8.6-8V17.7h42.4v24.1h-36.5v10.7c0,3.2,1.7,4.8,5.2,4.8h23.5c3.4,0.1,5.2-1.1,5.5-3.8
			c0-0.3,0.1-0.8,0.2-1.5c0.3-2.4,0.5-4.2,0.6-5.5c1.7,0.7,3.6,1.3,5.7,1.9c-0.4,3.5-0.9,6.3-1.5,8.4c-1.1,3.5-4.1,5.3-9,5.5H227.6z
			 M224.9,23.2v13.2h12.4V23.2H224.9z M255.8,23.2h-12.6v13.2h12.6V23.2z"/>
		<path d="M317.7,50.1c-0.1,0-0.4-0.1-0.8-0.2c-4.2-1.1-7.2-2.1-9-2.9l1.3,1.5c-1.8,1.1-4.3,2.4-7.6,3.8c3.1,1,7.9,2.7,14.5,5.2
			c-0.4-0.3,0.1-0.1,1.5,0.4l-2.3,4c-3.1-1.3-8.2-3.1-15.3-5.5c-0.7-0.3-1.2-0.5-1.5-0.6l1.9-3.6l-2.1-3.1c2.5-1.1,4.8-2.2,6.7-3.1
			c-3.9-1.8-7.6-4.1-10.9-6.9c-2.8,2.7-6.3,4.9-10.5,6.7c2.5,1.1,4.8,2.2,6.7,3.4l-1.9,2.7l1.9,3.6c-1.5,0.6-4.5,1.6-8.8,3.1
			c-4.2,1.5-7.1,2.6-8.8,3.1l-2.1-4.2c1.4-0.4,3.8-1.2,7.1-2.3c4.5-1.4,7.5-2.4,9-2.9c-0.3-0.1-0.8-0.4-1.7-0.8
			c-2.7-1.5-4.5-2.5-5.5-2.9l0.8-1.3c-2.9,1.3-6.2,2.4-9.7,3.4c-0.1-0.6-0.7-1.6-1.7-3.1c-0.3-0.7-0.5-1.2-0.6-1.5
			c10.9-2.7,19-6.4,24.4-11.1l5.5,0.4l-0.8,0.8c5.3,4.5,12.9,7.6,22.7,9.2C319.5,46.2,318.7,47.8,317.7,50.1z M290,36.4
			c-0.6-0.4-1.5-1-2.9-1.7c-1.3-0.8-2.2-1.4-2.9-1.7v6.3h-5v-6.5c-1.7,2.5-4.3,4.8-7.8,6.9c-0.3-0.4-0.7-1.1-1.3-2.1
			c-0.4-1-0.8-1.7-1-2.1c3.8-2,6.8-4.4,9-7.3h-8v-4h9v-3.4c-0.8,0-2.1,0-3.8,0c-1.7,0.1-2.9,0.2-3.8,0.2c-0.1-0.6-0.3-1.4-0.4-2.5
			c-0.3-0.7-0.4-1.3-0.4-1.7c8.4-0.3,15.1-0.7,20.2-1.3l1,4.2l-7.8,0.6v3.8h7.6v1.3c3.4-3.4,5.8-7.1,7.3-11.1l5,0.6
			c-0.1,0.4-0.4,1.1-0.8,2.1c-0.4,0.8-0.8,1.5-1,2.1h15.3c0,3.2-0.1,6.9-0.4,11.1c-0.1,5-2.5,7.5-6.9,7.3c-1.5,0-3.2,0-5,0
			c-0.1-0.6-0.4-1.5-0.8-2.9c-0.1-0.7-0.3-1.2-0.4-1.5c1.5,0,3.1,0,4.8,0c2.4,0.3,3.6-0.9,3.6-3.6c0.3-2.2,0.4-4.3,0.4-6.3h-4
			c-1,5-4.2,9.2-9.7,12.6c-0.1-0.1-0.3-0.3-0.4-0.4c-1.3-1.7-2.2-2.7-2.7-3.1c4.5-2.5,7.2-5.5,8.2-9h-4.4c-1.4,2-2.9,3.8-4.6,5.5
			c-1.1-1.1-2.2-2-3.4-2.7v2.1h-7.6v4l1.9-2.5c0.8,0.4,2.3,1.2,4.4,2.3c1.1,0.4,1.9,0.8,2.3,1L290,36.4z M284.5,64.1
			c-0.3-1.7-0.6-3.1-1-4.4c1.7,0,3.5,0,5.5,0c2.1,0,3.1-0.8,2.9-2.5V43.1h5.2v14.9c0.1,3.8-1.9,5.7-6.1,5.9c-0.6,0-1.5,0-2.9,0
			C286.4,64.1,285.2,64.1,284.5,64.1z"/>
	</g>
	<g class="st1">
		<path d="M218.5,88.7c2.3-0.4,5.2-0.7,9-0.7c4.6,0,8,1.1,10.2,3c2,1.7,3.2,4.4,3.2,7.6c0,3.3-1,5.9-2.8,7.7c-2.5,2.6-6.5,4-11.1,4
			c-1.4,0-2.7-0.1-3.8-0.3v14.5h-4.7V88.7z M223.1,106.2c1,0.3,2.3,0.4,3.9,0.4c5.6,0,9.1-2.7,9.1-7.7c0-4.8-3.4-7.1-8.5-7.1
			c-2,0-3.6,0.2-4.4,0.4V106.2z"/>
		<path d="M259.9,124.5l-0.4-3.3h-0.2c-1.5,2-4.2,3.9-8,3.9c-5.3,0-8-3.7-8-7.5c0-6.3,5.6-9.7,15.6-9.7v-0.5c0-2.2-0.6-6-5.9-6
			c-2.4,0-4.9,0.8-6.8,1.9l-1.1-3.1c2.1-1.4,5.3-2.3,8.5-2.3c8,0,9.9,5.4,9.9,10.6v9.7c0,2.3,0.1,4.5,0.4,6.2H259.9z M259.2,111.3
			c-5.2-0.1-11,0.8-11,5.9c0,3.1,2,4.5,4.5,4.5c3.4,0,5.5-2.1,6.3-4.4c0.2-0.5,0.3-1,0.3-1.5V111.3z"/>
		<path d="M271.4,106.6c0-3.1-0.1-5.7-0.2-8.1h4.1l0.2,5.1h0.2c1.2-3.5,4-5.7,7.2-5.7c0.5,0,0.9,0.1,1.3,0.2v4.5
			c-0.5-0.1-1-0.2-1.6-0.2c-3.3,0-5.7,2.5-6.3,6.1c-0.1,0.6-0.2,1.4-0.2,2.2v13.9h-4.7V106.6z"/>
		<path d="M294.5,91.2c0.1,1.6-1.1,2.9-3,2.9c-1.7,0-2.8-1.3-2.8-2.9c0-1.7,1.2-3,3-3C293.3,88.2,294.5,89.5,294.5,91.2z
			 M289.2,124.5v-26h4.7v26H289.2z"/>
		<path d="M301.1,119.7c1.4,0.9,3.9,1.9,6.2,1.9c3.4,0,5.1-1.7,5.1-3.9c0-2.3-1.3-3.5-4.8-4.8c-4.7-1.7-6.9-4.2-6.9-7.4
			c0-4.2,3.4-7.6,9-7.6c2.6,0,4.9,0.8,6.4,1.6l-1.2,3.4c-1-0.6-2.9-1.5-5.3-1.5c-2.8,0-4.4,1.6-4.4,3.5c0,2.2,1.6,3.1,4.9,4.4
			c4.5,1.7,6.8,4,6.8,7.8c0,4.6-3.5,7.8-9.7,7.8c-2.8,0-5.5-0.7-7.3-1.8L301.1,119.7z"/>
	</g>
</g>
<g id="Layer_2">
	<g class="st1">
		<path class="st2" d="M223.9,58.8c-5.7,0-8.6-2.7-8.6-8V14h42.4v24.1h-36.5v10.7c0,3.2,1.7,4.8,5.2,4.8H250
			c3.4,0.1,5.2-1.1,5.5-3.8c0-0.3,0.1-0.8,0.2-1.5c0.3-2.4,0.5-4.2,0.6-5.5c1.7,0.7,3.6,1.3,5.7,1.9c-0.4,3.5-0.9,6.3-1.5,8.4
			c-1.1,3.5-4.1,5.3-9,5.5H223.9z M221.2,19.5v13.2h12.4V19.5H221.2z M252.1,19.5h-12.6v13.2h12.6V19.5z"/>
		<path class="st2" d="M314,46.4c-0.1,0-0.4-0.1-0.8-0.2c-4.2-1.1-7.2-2.1-9-2.9l1.3,1.5c-1.8,1.1-4.3,2.4-7.6,3.8
			c3.1,1,7.9,2.7,14.5,5.2c-0.4-0.3,0.1-0.1,1.5,0.4l-2.3,4c-3.1-1.3-8.2-3.1-15.3-5.5c-0.7-0.3-1.2-0.5-1.5-0.6l1.9-3.6l-2.1-3.1
			c2.5-1.1,4.8-2.2,6.7-3.1c-3.9-1.8-7.6-4.1-10.9-6.9c-2.8,2.7-6.3,4.9-10.5,6.7c2.5,1.1,4.8,2.2,6.7,3.4l-1.9,2.7l1.9,3.6
			c-1.5,0.6-4.5,1.6-8.8,3.1c-4.2,1.5-7.1,2.6-8.8,3.1l-2.1-4.2c1.4-0.4,3.8-1.2,7.1-2.3c4.5-1.4,7.5-2.4,9-2.9
			c-0.3-0.1-0.8-0.4-1.7-0.8c-2.7-1.5-4.5-2.5-5.5-2.9l0.8-1.3c-2.9,1.3-6.2,2.4-9.7,3.4c-0.1-0.6-0.7-1.6-1.7-3.1
			c-0.3-0.7-0.5-1.2-0.6-1.5c10.9-2.7,19-6.4,24.4-11.1l5.5,0.4l-0.8,0.8c5.3,4.5,12.9,7.6,22.7,9.2C315.8,42.5,315,44.1,314,46.4z
			 M286.3,32.7c-0.6-0.4-1.5-1-2.9-1.7c-1.3-0.8-2.2-1.4-2.9-1.7v6.3h-5v-6.5c-1.7,2.5-4.3,4.8-7.8,6.9c-0.3-0.4-0.7-1.1-1.3-2.1
			c-0.4-1-0.8-1.7-1-2.1c3.8-2,6.8-4.4,9-7.3h-8v-4h9v-3.4c-0.8,0-2.1,0-3.8,0c-1.7,0.1-2.9,0.2-3.8,0.2c-0.1-0.6-0.3-1.4-0.4-2.5
			c-0.3-0.7-0.4-1.3-0.4-1.7c8.4-0.3,15.1-0.7,20.2-1.3l1,4.2l-7.8,0.6v3.8h7.6v1.3c3.4-3.4,5.8-7.1,7.3-11.1l5,0.6
			c-0.1,0.4-0.4,1.1-0.8,2.1c-0.4,0.8-0.8,1.5-1,2.1h15.3c0,3.2-0.1,6.9-0.4,11.1c-0.1,5-2.5,7.5-6.9,7.3c-1.5,0-3.2,0-5,0
			c-0.1-0.6-0.4-1.5-0.8-2.9c-0.1-0.7-0.3-1.2-0.4-1.5c1.5,0,3.1,0,4.8,0c2.4,0.3,3.6-0.9,3.6-3.6c0.3-2.2,0.4-4.3,0.4-6.3h-4
			c-1,5-4.2,9.2-9.7,12.6c-0.1-0.1-0.3-0.3-0.4-0.4c-1.3-1.7-2.2-2.7-2.7-3.1c4.5-2.5,7.2-5.5,8.2-9H296c-1.4,2-2.9,3.8-4.6,5.5
			c-1.1-1.1-2.2-2-3.4-2.7v2.1h-7.6v4l1.9-2.5c0.8,0.4,2.3,1.2,4.4,2.3c1.1,0.4,1.9,0.8,2.3,1L286.3,32.7z M280.8,60.4
			c-0.3-1.7-0.6-3.1-1-4.4c1.7,0,3.5,0,5.5,0c2.1,0,3.1-0.8,2.9-2.5V39.4h5.2v14.9c0.1,3.8-1.9,5.7-6.1,5.9c-0.6,0-1.5,0-2.9,0
			C282.7,60.4,281.5,60.4,280.8,60.4z"/>
	</g>
	<g class="st1">
		<path class="st2" d="M214.8,85c2.3-0.4,5.2-0.7,9-0.7c4.6,0,8,1.1,10.2,3c2,1.7,3.2,4.4,3.2,7.6c0,3.3-1,5.9-2.8,7.7
			c-2.5,2.6-6.5,4-11.1,4c-1.4,0-2.7-0.1-3.8-0.3v14.5h-4.7V85z M219.4,102.5c1,0.3,2.3,0.4,3.9,0.4c5.6,0,9.1-2.7,9.1-7.7
			c0-4.8-3.4-7.1-8.5-7.1c-2,0-3.6,0.2-4.4,0.4V102.5z"/>
		<path class="st2" d="M256.2,120.8l-0.4-3.3h-0.2c-1.5,2-4.2,3.9-8,3.9c-5.3,0-8-3.7-8-7.5c0-6.3,5.6-9.7,15.6-9.7v-0.5
			c0-2.2-0.6-6-5.9-6c-2.4,0-4.9,0.8-6.8,1.9l-1.1-3.1c2.1-1.4,5.3-2.3,8.5-2.3c8,0,9.9,5.4,9.9,10.6v9.7c0,2.3,0.1,4.5,0.4,6.2
			H256.2z M255.5,107.5c-5.2-0.1-11,0.8-11,5.9c0,3.1,2,4.5,4.5,4.5c3.4,0,5.5-2.1,6.3-4.4c0.2-0.5,0.3-1,0.3-1.5V107.5z"/>
		<path class="st2" d="M267.7,102.9c0-3.1-0.1-5.7-0.2-8.1h4.1l0.2,5.1h0.2c1.2-3.5,4-5.7,7.2-5.7c0.5,0,0.9,0.1,1.3,0.2v4.5
			c-0.5-0.1-1-0.2-1.6-0.2c-3.3,0-5.7,2.5-6.3,6.1c-0.1,0.6-0.2,1.4-0.2,2.2v13.9h-4.7V102.9z"/>
		<path class="st2" d="M290.8,87.5c0.1,1.6-1.1,2.9-3,2.9c-1.7,0-2.8-1.3-2.8-2.9c0-1.7,1.2-3,3-3C289.6,84.5,290.8,85.8,290.8,87.5
			z M285.5,120.8v-26h4.7v26H285.5z"/>
		<path class="st2" d="M297.4,116c1.4,0.9,3.9,1.9,6.2,1.9c3.4,0,5.1-1.7,5.1-3.9c0-2.3-1.3-3.5-4.8-4.8c-4.7-1.7-6.9-4.2-6.9-7.4
			c0-4.2,3.4-7.6,9-7.6c2.6,0,4.9,0.8,6.4,1.6l-1.2,3.4c-1-0.6-2.9-1.5-5.3-1.5c-2.8,0-4.4,1.6-4.4,3.5c0,2.2,1.6,3.1,4.9,4.4
			c4.5,1.7,6.8,4,6.8,7.8c0,4.6-3.5,7.8-9.7,7.8c-2.8,0-5.5-0.7-7.3-1.8L297.4,116z"/>
	</g>
</g>
<g id="Layer_1_2_" class="st0">
	<g>
		<g>
			<path d="M89.5,23c30.6,0,55.5,24.9,55.5,55.5S120.1,134,89.5,134S34,109.1,34,78.5S58.9,23,89.5,23 M89.5,17
				C55.5,17,28,44.5,28,78.5S55.5,140,89.5,140S151,112.5,151,78.5S123.5,17,89.5,17L89.5,17z"/>
		</g>
		<g>
			<path d="M89.5,53c14.1,0,25.5,11.4,25.5,25.5S103.6,104,89.5,104S64,92.6,64,78.5S75.4,53,89.5,53 M89.5,51
				C74.3,51,62,63.3,62,78.5S74.3,106,89.5,106S117,93.7,117,78.5S104.7,51,89.5,51L89.5,51z"/>
		</g>
	</g>
</g>
<g id="Layer_2_1_">
	<g>
		<g>
			<path class="st2" d="M85.5,18c30.6,0,55.5,24.9,55.5,55.5S116.1,129,85.5,129S30,104.1,30,73.5S54.9,18,85.5,18 M85.5,12
				C51.5,12,24,39.5,24,73.5S51.5,135,85.5,135S147,107.5,147,73.5S119.5,12,85.5,12L85.5,12z"/>
		</g>
		<g>
			<path class="st2" d="M85.5,48C99.6,48,111,59.4,111,73.5S99.6,99,85.5,99S60,87.6,60,73.5S71.4,48,85.5,48 M85.5,46
				C70.3,46,58,58.3,58,73.5S70.3,101,85.5,101S113,88.7,113,73.5S100.7,46,85.5,46L85.5,46z"/>
		</g>
	</g>
</g>
</svg>
