<?xml version="1.0" encoding="utf-8"?>
<!-- Generator: Adobe Illustrator 21.0.0, SVG Export Plug-In . SVG Version: 6.00 Build 0)  -->
<svg version="1.1" id="Layer_1" xmlns="http://www.w3.org/2000/svg" xmlns:xlink="http://www.w3.org/1999/xlink" x="0px" y="0px"
	 viewBox="0 0 479 150" style="enable-background:new 0 0 479 150;" xml:space="preserve">
<style type="text/css">
	.st0{opacity:0.5;}
	.st1{enable-background:new    ;}
	.st2{fill:#FFFFFF;}
</style>
<g id="Layer_1_1_" class="st0">
	<g class="st1">
		<path d="M218.8,62.3c-1.3-1.3-2.7-2.5-4.2-3.8c5.3-4.8,9.4-8.8,12.2-12.2l4.6,3.4C228.5,53.2,224.3,57.4,218.8,62.3z M215.7,26.6
			v-5.2h13.4c0.6-1,1.3-2.5,2.3-4.6c0.6-1.1,1-2,1.3-2.5l6.5,0.8c-0.4,0.7-1,1.8-1.7,3.1c-0.7,1.4-1.3,2.5-1.7,3.2h29.4v5.2h-32.3
			c-2.2,4.1-4.6,7.9-6.9,11.5h13.2v-8.8h6.1v8.8h17.8v5.2h-17.8V56c0.4,5.3-2.2,8-7.8,8c-0.6,0-1.6,0-3.1,0c-2,0.1-3.4,0.2-4.2,0.2
			c-0.1-1.1-0.5-2.9-1-5.2l-0.2-0.4c2.1,0,4.2,0,6.3,0c2.9,0.1,4.3-1.1,4-3.8V43.4h-19.9v-5.7c2.5-3.5,4.8-7.2,6.9-11.1H215.7z
			 M262.1,61.6c-3.2-2.8-7.6-6.5-13-11.1l4-3.8c3.4,2.7,7.8,6.3,13.2,10.9L262.1,61.6z"/>
		<path d="M271.9,62c-0.3-0.4-0.8-1.2-1.5-2.3c-0.7-1-1.3-1.7-1.7-2.1c5.9-3.1,10.5-5.9,13.9-8.6l3.6,4c-2.7,2-6.8,4.5-12.4,7.8
			C273,61.3,272.4,61.8,271.9,62z M269.2,25.5v-5h22.7c-0.1-0.7-0.5-1.7-1-2.9c-0.4-1.3-0.8-2.2-1-2.7l6.5-0.6
			c0.1,0.4,0.3,1,0.6,1.9c0.3,0.6,0.8,2,1.5,4.4h20.8v5H269.2z M275.1,46.7V30.1h38.4v16.6H298V57c0.3,4.5-2,6.8-6.7,6.9
			c-0.7,0-1.8,0.1-3.4,0.2c-1.4,0-2.5,0-3.4,0c-0.1-2-0.6-3.8-1.3-5.5c0.4,0,1,0,1.9,0c1.5,0.1,2.8,0.1,3.8,0
			c2.4,0.1,3.5-0.8,3.4-2.7v-9.2H275.1z M281,35v6.9h26.9V35H281z M315.8,61.6c-2.8-1.8-6.9-4.1-12.2-6.9c-0.7-0.4-1.3-0.8-1.7-1
			l3.1-4.2c5.6,3.1,10.2,5.7,13.9,7.8L315.8,61.6z"/>
	</g>
	<g class="st1">
		<path d="M210.1,92.3h-11v-4h26.8v4h-11.1v32.3h-4.7V92.3z"/>
		<path d="M249.5,111.3c0,9.6-6.7,13.8-13,13.8c-7,0-12.5-5.2-12.5-13.4c0-8.7,5.7-13.8,12.9-13.8
			C244.5,97.9,249.5,103.4,249.5,111.3z M228.9,111.6c0,5.7,3.3,10,7.9,10c4.5,0,7.9-4.2,7.9-10.1c0-4.4-2.2-10-7.8-10
			S228.9,106.6,228.9,111.6z"/>
		<path d="M260.2,110.5h0.1c0.6-0.9,1.6-2,2.3-3l7.6-9h5.7l-10.1,10.7l11.5,15.3h-5.8l-9-12.5l-2.4,2.7v9.8h-4.7V86.4h4.7V110.5z"/>
		<path d="M283.1,98.5l5.7,15.4c0.6,1.7,1.2,3.8,1.7,5.3h0.1c0.5-1.6,1-3.5,1.7-5.4l5.2-15.3h5l-7.1,18.5
			c-3.4,8.9-5.7,13.5-8.9,16.3c-2.3,2-4.6,2.8-5.8,3.1l-1.2-4c1.2-0.4,2.7-1.1,4.1-2.3c1.3-1,2.9-2.8,4-5.3c0.2-0.5,0.4-0.9,0.4-1.1
			c0-0.3-0.1-0.6-0.3-1.2l-9.6-24H283.1z"/>
		<path d="M329.7,111.3c0,9.6-6.7,13.8-13,13.8c-7,0-12.5-5.2-12.5-13.4c0-8.7,5.7-13.8,12.9-13.8
			C324.7,97.9,329.7,103.4,329.7,111.3z M309.1,111.6c0,5.7,3.3,10,7.9,10c4.5,0,7.9-4.2,7.9-10.1c0-4.4-2.2-10-7.8-10
			C311.5,101.5,309.1,106.6,309.1,111.6z"/>
	</g>
</g>
<g id="Layer_2">
	<g class="st1">
		<path class="st2" d="M215.1,58.5c-1.3-1.3-2.7-2.5-4.2-3.8c5.3-4.8,9.4-8.8,12.2-12.2l4.6,3.4C224.8,49.5,220.6,53.6,215.1,58.5z
			 M212,22.9v-5.2h13.4c0.6-1,1.3-2.5,2.3-4.6c0.6-1.1,1-2,1.3-2.5l6.5,0.8c-0.4,0.7-1,1.8-1.7,3.1c-0.7,1.4-1.3,2.5-1.7,3.2h29.4
			v5.2h-32.3c-2.2,4.1-4.6,7.9-6.9,11.5h13.2v-8.8h6.1v8.8h17.8v5.2h-17.8v12.6c0.4,5.3-2.2,8-7.8,8c-0.6,0-1.6,0-3.1,0
			c-2,0.1-3.4,0.2-4.2,0.2c-0.1-1.1-0.5-2.9-1-5.2l-0.2-0.4c2.1,0,4.2,0,6.3,0c2.9,0.1,4.3-1.1,4-3.8V39.7h-19.9V34
			c2.5-3.5,4.8-7.2,6.9-11.1H212z M258.4,57.9c-3.2-2.8-7.6-6.5-13-11.1l4-3.8c3.4,2.7,7.8,6.3,13.2,10.9L258.4,57.9z"/>
		<path class="st2" d="M268.2,58.3c-0.3-0.4-0.8-1.2-1.5-2.3c-0.7-1-1.3-1.7-1.7-2.1c5.9-3.1,10.5-5.9,13.9-8.6l3.6,4
			c-2.7,2-6.8,4.5-12.4,7.8C269.3,57.6,268.7,58.1,268.2,58.3z M265.5,21.8v-5h22.7c-0.1-0.7-0.5-1.7-1-2.9c-0.4-1.3-0.8-2.2-1-2.7
			l6.5-0.6c0.1,0.4,0.3,1,0.6,1.9c0.3,0.6,0.8,2,1.5,4.4h20.8v5H265.5z M271.4,43V26.4h38.4V43h-15.5v10.3c0.3,4.5-2,6.8-6.7,6.9
			c-0.7,0-1.8,0.1-3.4,0.2c-1.4,0-2.5,0-3.4,0c-0.1-2-0.6-3.8-1.3-5.5c0.4,0,1,0,1.9,0c1.5,0.1,2.8,0.1,3.8,0
			c2.4,0.1,3.5-0.8,3.4-2.7V43H271.4z M277.3,31.3v6.9h26.9v-6.9H277.3z M312.1,57.9c-2.8-1.8-6.9-4.1-12.2-6.9
			c-0.7-0.4-1.3-0.8-1.7-1l3.1-4.2c5.6,3.1,10.2,5.7,13.9,7.8L312.1,57.9z"/>
	</g>
	<g class="st1">
		<path class="st2" d="M206.4,88.6h-11v-4h26.8v4h-11.1v32.3h-4.7V88.6z"/>
		<path class="st2" d="M245.8,107.6c0,9.6-6.7,13.8-13,13.8c-7,0-12.5-5.2-12.5-13.4c0-8.7,5.7-13.8,12.9-13.8
			C240.8,94.2,245.8,99.6,245.8,107.6z M225.2,107.9c0,5.7,3.3,10,7.9,10c4.5,0,7.9-4.2,7.9-10.1c0-4.4-2.2-10-7.8-10
			S225.2,102.9,225.2,107.9z"/>
		<path class="st2" d="M256.5,106.7h0.1c0.6-0.9,1.6-2,2.3-3l7.6-9h5.7l-10.1,10.7l11.5,15.3h-5.8l-9-12.5l-2.4,2.7v9.8h-4.7V82.7
			h4.7V106.7z"/>
		<path class="st2" d="M279.4,94.8l5.7,15.4c0.6,1.7,1.2,3.8,1.7,5.3h0.1c0.5-1.6,1-3.5,1.7-5.4l5.2-15.3h5l-7.1,18.5
			c-3.4,8.9-5.7,13.5-8.9,16.3c-2.3,2-4.6,2.8-5.8,3.1l-1.2-4c1.2-0.4,2.7-1.1,4.1-2.3c1.3-1,2.9-2.8,4-5.3c0.2-0.5,0.4-0.9,0.4-1.1
			c0-0.3-0.1-0.6-0.3-1.2l-9.6-24H279.4z"/>
		<path class="st2" d="M326,107.6c0,9.6-6.7,13.8-13,13.8c-7,0-12.5-5.2-12.5-13.4c0-8.7,5.7-13.8,12.9-13.8
			C321,94.2,326,99.6,326,107.6z M305.4,107.9c0,5.7,3.3,10,7.9,10c4.5,0,7.9-4.2,7.9-10.1c0-4.4-2.2-10-7.8-10
			S305.4,102.9,305.4,107.9z"/>
	</g>
</g>
<g id="Layer_1_2_" class="st0">
	<g>
		<g>
			<path d="M89.5,23c30.6,0,55.5,24.9,55.5,55.5S120.1,134,89.5,134S34,109.1,34,78.5S58.9,23,89.5,23 M89.5,17
				C55.5,17,28,44.5,28,78.5S55.5,140,89.5,140S151,112.5,151,78.5S123.5,17,89.5,17L89.5,17z"/>
		</g>
		<g>
			<path d="M89.5,53c14.1,0,25.5,11.4,25.5,25.5S103.6,104,89.5,104S64,92.6,64,78.5S75.4,53,89.5,53 M89.5,51
				C74.3,51,62,63.3,62,78.5S74.3,106,89.5,106S117,93.7,117,78.5S104.7,51,89.5,51L89.5,51z"/>
		</g>
	</g>
</g>
<g id="Layer_2_1_">
	<g>
		<g>
			<path class="st2" d="M85.5,18c30.6,0,55.5,24.9,55.5,55.5S116.1,129,85.5,129S30,104.1,30,73.5S54.9,18,85.5,18 M85.5,12
				C51.5,12,24,39.5,24,73.5S51.5,135,85.5,135S147,107.5,147,73.5S119.5,12,85.5,12L85.5,12z"/>
		</g>
		<g>
			<path class="st2" d="M85.5,48C99.6,48,111,59.4,111,73.5S99.6,99,85.5,99S60,87.6,60,73.5S71.4,48,85.5,48 M85.5,46
				C70.3,46,58,58.3,58,73.5S70.3,101,85.5,101S113,88.7,113,73.5S100.7,46,85.5,46L85.5,46z"/>
		</g>
	</g>
</g>
</svg>
